G04 #@! TF.GenerationSoftware,KiCad,Pcbnew,(5.1.10)-1*
G04 #@! TF.CreationDate,2021-10-12T08:16:22+02:00*
G04 #@! TF.ProjectId,FGINT-V3-MASTER-64,4647494e-542d-4563-932d-4d4153544552,rev?*
G04 #@! TF.SameCoordinates,Original*
G04 #@! TF.FileFunction,Soldermask,Bot*
G04 #@! TF.FilePolarity,Negative*
%FSLAX46Y46*%
G04 Gerber Fmt 4.6, Leading zero omitted, Abs format (unit mm)*
G04 Created by KiCad (PCBNEW (5.1.10)-1) date 2021-10-12 08:16:22*
%MOMM*%
%LPD*%
G01*
G04 APERTURE LIST*
%ADD10R,1.500000X1.500000*%
%ADD11C,1.500000*%
%ADD12O,1.700000X1.700000*%
%ADD13R,1.700000X1.700000*%
%ADD14O,1.740000X2.200000*%
%ADD15C,1.600000*%
%ADD16R,1.600000X1.600000*%
%ADD17R,3.200000X3.200000*%
%ADD18R,1.727200X1.727200*%
%ADD19O,1.727200X1.727200*%
%ADD20O,1.600000X1.600000*%
%ADD21O,1.905000X2.000000*%
%ADD22R,1.905000X2.000000*%
%ADD23O,3.500000X3.500000*%
%ADD24R,3.000000X3.000000*%
%ADD25C,3.000000*%
G04 APERTURE END LIST*
D10*
X222250000Y-116840000D03*
D11*
X222250000Y-121920000D03*
X222250000Y-119380000D03*
D10*
X222250000Y-100330000D03*
D11*
X222250000Y-105410000D03*
X222250000Y-102870000D03*
D12*
X214630000Y-68580000D03*
D13*
X217170000Y-68580000D03*
D12*
X233680000Y-155575000D03*
D13*
X231140000Y-155575000D03*
D14*
X224790000Y-154940000D03*
X222250000Y-154940000D03*
X219710000Y-154940000D03*
G36*
G01*
X216300000Y-155790001D02*
X216300000Y-154089999D01*
G75*
G02*
X216549999Y-153840000I249999J0D01*
G01*
X217790001Y-153840000D01*
G75*
G02*
X218040000Y-154089999I0J-249999D01*
G01*
X218040000Y-155790001D01*
G75*
G02*
X217790001Y-156040000I-249999J0D01*
G01*
X216549999Y-156040000D01*
G75*
G02*
X216300000Y-155790001I0J249999D01*
G01*
G37*
X209550000Y-154940000D03*
X207010000Y-154940000D03*
X204470000Y-154940000D03*
G36*
G01*
X201060000Y-155790001D02*
X201060000Y-154089999D01*
G75*
G02*
X201309999Y-153840000I249999J0D01*
G01*
X202550001Y-153840000D01*
G75*
G02*
X202800000Y-154089999I0J-249999D01*
G01*
X202800000Y-155790001D01*
G75*
G02*
X202550001Y-156040000I-249999J0D01*
G01*
X201309999Y-156040000D01*
G75*
G02*
X201060000Y-155790001I0J249999D01*
G01*
G37*
X209550000Y-143510000D03*
X207010000Y-143510000D03*
X204470000Y-143510000D03*
G36*
G01*
X201060000Y-144360001D02*
X201060000Y-142659999D01*
G75*
G02*
X201309999Y-142410000I249999J0D01*
G01*
X202550001Y-142410000D01*
G75*
G02*
X202800000Y-142659999I0J-249999D01*
G01*
X202800000Y-144360001D01*
G75*
G02*
X202550001Y-144610000I-249999J0D01*
G01*
X201309999Y-144610000D01*
G75*
G02*
X201060000Y-144360001I0J249999D01*
G01*
G37*
D15*
X212090000Y-58420000D03*
X212090000Y-53420000D03*
X205700000Y-58420000D03*
D16*
X203200000Y-58420000D03*
X220980000Y-58420000D03*
D15*
X218480000Y-58420000D03*
D17*
X231000000Y-43180000D03*
X237000000Y-43180000D03*
X234000000Y-38480000D03*
D18*
X241300000Y-143510000D03*
D19*
X238760000Y-143510000D03*
X241300000Y-140970000D03*
X238760000Y-140970000D03*
X241300000Y-138430000D03*
X238760000Y-138430000D03*
X241300000Y-135890000D03*
X238760000Y-135890000D03*
X241300000Y-133350000D03*
X238760000Y-133350000D03*
X241300000Y-130810000D03*
X238760000Y-130810000D03*
X241300000Y-128270000D03*
X238760000Y-128270000D03*
X241300000Y-125730000D03*
X238760000Y-125730000D03*
X241300000Y-123190000D03*
X238760000Y-123190000D03*
X241300000Y-120650000D03*
X238760000Y-120650000D03*
X241300000Y-118110000D03*
X238760000Y-118110000D03*
X241300000Y-115570000D03*
X238760000Y-115570000D03*
X241300000Y-113030000D03*
X238760000Y-113030000D03*
X241300000Y-110490000D03*
X238760000Y-110490000D03*
X241300000Y-107950000D03*
X238760000Y-107950000D03*
X241300000Y-105410000D03*
X238760000Y-105410000D03*
X241300000Y-102870000D03*
X238760000Y-102870000D03*
X241300000Y-100330000D03*
X238760000Y-100330000D03*
X241300000Y-97790000D03*
X238760000Y-97790000D03*
X241300000Y-95250000D03*
X238760000Y-95250000D03*
D15*
X207010000Y-99060000D03*
D20*
X214630000Y-99060000D03*
X214630000Y-115570000D03*
D15*
X207010000Y-115570000D03*
X238760000Y-61000000D03*
D20*
X238760000Y-53380000D03*
X214630000Y-106680000D03*
D15*
X207010000Y-106680000D03*
X207010000Y-123190000D03*
D20*
X214630000Y-123190000D03*
X231140000Y-60960000D03*
D15*
X231140000Y-53340000D03*
D16*
X151130000Y-76200000D03*
D20*
X151130000Y-73660000D03*
X151130000Y-71120000D03*
X151130000Y-68580000D03*
X151130000Y-66040000D03*
X151130000Y-63500000D03*
X151130000Y-60960000D03*
X151130000Y-58420000D03*
X151130000Y-55880000D03*
X128270000Y-55880000D03*
X128270000Y-58420000D03*
X128270000Y-60960000D03*
X128270000Y-63500000D03*
X128270000Y-66040000D03*
X128270000Y-68580000D03*
X128270000Y-71120000D03*
X128270000Y-73660000D03*
D16*
X128270000Y-76200000D03*
X186690000Y-76200000D03*
D20*
X186690000Y-73660000D03*
X186690000Y-71120000D03*
X186690000Y-68580000D03*
X186690000Y-66040000D03*
X186690000Y-63500000D03*
X186690000Y-60960000D03*
X186690000Y-58420000D03*
X186690000Y-55880000D03*
X163830000Y-55880000D03*
X163830000Y-58420000D03*
X163830000Y-60960000D03*
X163830000Y-63500000D03*
X163830000Y-66040000D03*
X163830000Y-68580000D03*
X163830000Y-71120000D03*
X163830000Y-73660000D03*
D16*
X163830000Y-76200000D03*
D20*
X143510000Y-55880000D03*
X135890000Y-88900000D03*
X143510000Y-58420000D03*
X135890000Y-86360000D03*
X143510000Y-60960000D03*
X135890000Y-83820000D03*
X143510000Y-63500000D03*
X135890000Y-81280000D03*
X143510000Y-66040000D03*
X135890000Y-78740000D03*
X143510000Y-68580000D03*
X135890000Y-76200000D03*
X143510000Y-71120000D03*
X135890000Y-73660000D03*
X143510000Y-73660000D03*
X135890000Y-71120000D03*
X143510000Y-76200000D03*
X135890000Y-68580000D03*
X143510000Y-78740000D03*
X135890000Y-66040000D03*
X143510000Y-81280000D03*
X135890000Y-63500000D03*
X143510000Y-83820000D03*
X135890000Y-60960000D03*
X143510000Y-86360000D03*
X135890000Y-58420000D03*
X143510000Y-88900000D03*
D16*
X135890000Y-55880000D03*
D20*
X179070000Y-55880000D03*
X171450000Y-88900000D03*
X179070000Y-58420000D03*
X171450000Y-86360000D03*
X179070000Y-60960000D03*
X171450000Y-83820000D03*
X179070000Y-63500000D03*
X171450000Y-81280000D03*
X179070000Y-66040000D03*
X171450000Y-78740000D03*
X179070000Y-68580000D03*
X171450000Y-76200000D03*
X179070000Y-71120000D03*
X171450000Y-73660000D03*
X179070000Y-73660000D03*
X171450000Y-71120000D03*
X179070000Y-76200000D03*
X171450000Y-68580000D03*
X179070000Y-78740000D03*
X171450000Y-66040000D03*
X179070000Y-81280000D03*
X171450000Y-63500000D03*
X179070000Y-83820000D03*
X171450000Y-60960000D03*
X179070000Y-86360000D03*
X171450000Y-58420000D03*
X179070000Y-88900000D03*
D16*
X171450000Y-55880000D03*
D21*
X203200000Y-68580000D03*
X205740000Y-68580000D03*
D22*
X208280000Y-68580000D03*
D23*
X205740000Y-85240000D03*
X226060000Y-85240000D03*
D22*
X228600000Y-68580000D03*
D21*
X226060000Y-68580000D03*
X223520000Y-68580000D03*
G36*
G01*
X216300000Y-144360001D02*
X216300000Y-142659999D01*
G75*
G02*
X216549999Y-142410000I249999J0D01*
G01*
X217790001Y-142410000D01*
G75*
G02*
X218040000Y-142659999I0J-249999D01*
G01*
X218040000Y-144360001D01*
G75*
G02*
X217790001Y-144610000I-249999J0D01*
G01*
X216549999Y-144610000D01*
G75*
G02*
X216300000Y-144360001I0J249999D01*
G01*
G37*
D14*
X219710000Y-143510000D03*
X222250000Y-143510000D03*
X224790000Y-143510000D03*
D19*
X151130000Y-45720000D03*
X151130000Y-48260000D03*
X148590000Y-45720000D03*
X148590000Y-48260000D03*
X146050000Y-45720000D03*
X146050000Y-48260000D03*
X143510000Y-45720000D03*
X143510000Y-48260000D03*
X140970000Y-45720000D03*
X140970000Y-48260000D03*
X138430000Y-45720000D03*
X138430000Y-48260000D03*
X135890000Y-45720000D03*
X135890000Y-48260000D03*
X133350000Y-45720000D03*
X133350000Y-48260000D03*
X130810000Y-45720000D03*
X130810000Y-48260000D03*
X128270000Y-45720000D03*
D18*
X128270000Y-48260000D03*
D13*
X116840000Y-111760000D03*
D12*
X116840000Y-109220000D03*
X148590000Y-88900000D03*
X151130000Y-88900000D03*
D13*
X153670000Y-88900000D03*
X130810000Y-88900000D03*
D12*
X128270000Y-88900000D03*
X125730000Y-88900000D03*
D18*
X163830000Y-48260000D03*
D19*
X163830000Y-45720000D03*
X166370000Y-48260000D03*
X166370000Y-45720000D03*
X168910000Y-48260000D03*
X168910000Y-45720000D03*
X171450000Y-48260000D03*
X171450000Y-45720000D03*
X173990000Y-48260000D03*
X173990000Y-45720000D03*
X176530000Y-48260000D03*
X176530000Y-45720000D03*
X179070000Y-48260000D03*
X179070000Y-45720000D03*
X181610000Y-48260000D03*
X181610000Y-45720000D03*
X184150000Y-48260000D03*
X184150000Y-45720000D03*
X186690000Y-48260000D03*
X186690000Y-45720000D03*
D13*
X189230000Y-88900000D03*
D12*
X186690000Y-88900000D03*
X184150000Y-88900000D03*
X161290000Y-88900000D03*
X163830000Y-88900000D03*
D13*
X166370000Y-88900000D03*
D19*
X128270000Y-146050000D03*
X128270000Y-143510000D03*
X130810000Y-146050000D03*
X130810000Y-143510000D03*
X133350000Y-146050000D03*
X133350000Y-143510000D03*
X135890000Y-146050000D03*
X135890000Y-143510000D03*
X138430000Y-146050000D03*
X138430000Y-143510000D03*
X140970000Y-146050000D03*
X140970000Y-143510000D03*
X143510000Y-146050000D03*
X143510000Y-143510000D03*
X146050000Y-146050000D03*
X146050000Y-143510000D03*
X148590000Y-146050000D03*
X148590000Y-143510000D03*
X151130000Y-146050000D03*
D18*
X151130000Y-143510000D03*
D12*
X130810000Y-102870000D03*
X128270000Y-102870000D03*
D13*
X125730000Y-102870000D03*
D12*
X153670000Y-102870000D03*
X151130000Y-102870000D03*
D13*
X148590000Y-102870000D03*
D18*
X186690000Y-143510000D03*
D19*
X186690000Y-146050000D03*
X184150000Y-143510000D03*
X184150000Y-146050000D03*
X181610000Y-143510000D03*
X181610000Y-146050000D03*
X179070000Y-143510000D03*
X179070000Y-146050000D03*
X176530000Y-143510000D03*
X176530000Y-146050000D03*
X173990000Y-143510000D03*
X173990000Y-146050000D03*
X171450000Y-143510000D03*
X171450000Y-146050000D03*
X168910000Y-143510000D03*
X168910000Y-146050000D03*
X166370000Y-143510000D03*
X166370000Y-146050000D03*
X163830000Y-143510000D03*
X163830000Y-146050000D03*
D13*
X161290000Y-102870000D03*
D12*
X163830000Y-102870000D03*
X166370000Y-102870000D03*
D13*
X184150000Y-102870000D03*
D12*
X186690000Y-102870000D03*
X189230000Y-102870000D03*
D16*
X116840000Y-101600000D03*
D20*
X116840000Y-99060000D03*
X116840000Y-96520000D03*
X116840000Y-93980000D03*
X116840000Y-91440000D03*
D16*
X151130000Y-115570000D03*
D20*
X151130000Y-118110000D03*
X151130000Y-120650000D03*
X151130000Y-123190000D03*
X151130000Y-125730000D03*
X151130000Y-128270000D03*
X151130000Y-130810000D03*
X151130000Y-133350000D03*
X151130000Y-135890000D03*
D16*
X128270000Y-115570000D03*
D20*
X128270000Y-118110000D03*
X128270000Y-120650000D03*
X128270000Y-123190000D03*
X128270000Y-125730000D03*
X128270000Y-128270000D03*
X128270000Y-130810000D03*
X128270000Y-133350000D03*
X128270000Y-135890000D03*
X186690000Y-135890000D03*
X186690000Y-133350000D03*
X186690000Y-130810000D03*
X186690000Y-128270000D03*
X186690000Y-125730000D03*
X186690000Y-123190000D03*
X186690000Y-120650000D03*
X186690000Y-118110000D03*
D16*
X186690000Y-115570000D03*
D20*
X163830000Y-135890000D03*
X163830000Y-133350000D03*
X163830000Y-130810000D03*
X163830000Y-128270000D03*
X163830000Y-125730000D03*
X163830000Y-123190000D03*
X163830000Y-120650000D03*
X163830000Y-118110000D03*
D16*
X163830000Y-115570000D03*
X143510000Y-135890000D03*
D20*
X135890000Y-102870000D03*
X143510000Y-133350000D03*
X135890000Y-105410000D03*
X143510000Y-130810000D03*
X135890000Y-107950000D03*
X143510000Y-128270000D03*
X135890000Y-110490000D03*
X143510000Y-125730000D03*
X135890000Y-113030000D03*
X143510000Y-123190000D03*
X135890000Y-115570000D03*
X143510000Y-120650000D03*
X135890000Y-118110000D03*
X143510000Y-118110000D03*
X135890000Y-120650000D03*
X143510000Y-115570000D03*
X135890000Y-123190000D03*
X143510000Y-113030000D03*
X135890000Y-125730000D03*
X143510000Y-110490000D03*
X135890000Y-128270000D03*
X143510000Y-107950000D03*
X135890000Y-130810000D03*
X143510000Y-105410000D03*
X135890000Y-133350000D03*
X143510000Y-102870000D03*
X135890000Y-135890000D03*
X171450000Y-135890000D03*
X179070000Y-102870000D03*
X171450000Y-133350000D03*
X179070000Y-105410000D03*
X171450000Y-130810000D03*
X179070000Y-107950000D03*
X171450000Y-128270000D03*
X179070000Y-110490000D03*
X171450000Y-125730000D03*
X179070000Y-113030000D03*
X171450000Y-123190000D03*
X179070000Y-115570000D03*
X171450000Y-120650000D03*
X179070000Y-118110000D03*
X171450000Y-118110000D03*
X179070000Y-120650000D03*
X171450000Y-115570000D03*
X179070000Y-123190000D03*
X171450000Y-113030000D03*
X179070000Y-125730000D03*
X171450000Y-110490000D03*
X179070000Y-128270000D03*
X171450000Y-107950000D03*
X179070000Y-130810000D03*
X171450000Y-105410000D03*
X179070000Y-133350000D03*
X171450000Y-102870000D03*
D16*
X179070000Y-135890000D03*
D24*
X208280000Y-43180000D03*
D25*
X213360000Y-43180000D03*
X218440000Y-43180000D03*
M02*
