%FSLAX45Y45*%
G04 Gerber Fmt 4.5, Leading zero omitted, Abs format (unit mm)*
G04 Created by KiCad (PCBNEW (5.1.10)-1) date 2021-10-12 11:26:06*
%MOMM*%
%LPD*%
G01*
G04 APERTURE LIST*
%TA.AperFunction,Profile*%
%ADD10C,0.150000*%
%TD*%
%ADD11C,0.200000*%
%ADD12C,0.300000*%
G04 APERTURE END LIST*
D10*
X24915000Y-3429000D02*
G75*
G03*
X24915000Y-3429000I-150000J0D01*
G01*
X24915000Y-15748000D02*
G75*
G03*
X24915000Y-15748000I-150000J0D01*
G01*
X11453000Y-15748000D02*
G75*
G03*
X11453000Y-15748000I-150000J0D01*
G01*
X11453000Y-3429000D02*
G75*
G03*
X11453000Y-3429000I-150000J0D01*
G01*
X11049000Y-16002000D02*
X11049000Y-3175000D01*
X25019000Y-16002000D02*
X11049000Y-16002000D01*
X25019000Y-3175000D02*
X25019000Y-16002000D01*
X11049000Y-3175000D02*
X25019000Y-3175000D01*
D11*
X16236000Y-7854000D02*
X16276000Y-7894000D01*
X16276000Y-7854000D02*
X16236000Y-7894000D01*
X11724000Y-9144000D02*
G75*
G03*
X11724000Y-9144000I-40000J0D01*
G01*
X11724000Y-9398000D02*
G75*
G03*
X11724000Y-9398000I-40000J0D01*
G01*
X11724000Y-9652000D02*
G75*
G03*
X11724000Y-9652000I-40000J0D01*
G01*
X11724000Y-9906000D02*
G75*
G03*
X11724000Y-9906000I-40000J0D01*
G01*
X11724000Y-10160000D02*
G75*
G03*
X11724000Y-10160000I-40000J0D01*
G01*
X12867000Y-5588000D02*
G75*
G03*
X12867000Y-5588000I-40000J0D01*
G01*
X12867000Y-5842000D02*
G75*
G03*
X12867000Y-5842000I-40000J0D01*
G01*
X12867000Y-6096000D02*
G75*
G03*
X12867000Y-6096000I-40000J0D01*
G01*
X12867000Y-6350000D02*
G75*
G03*
X12867000Y-6350000I-40000J0D01*
G01*
X12867000Y-6604000D02*
G75*
G03*
X12867000Y-6604000I-40000J0D01*
G01*
X12867000Y-6858000D02*
G75*
G03*
X12867000Y-6858000I-40000J0D01*
G01*
X12867000Y-7112000D02*
G75*
G03*
X12867000Y-7112000I-40000J0D01*
G01*
X12867000Y-7366000D02*
G75*
G03*
X12867000Y-7366000I-40000J0D01*
G01*
X12867000Y-7620000D02*
G75*
G03*
X12867000Y-7620000I-40000J0D01*
G01*
X12867000Y-11557000D02*
G75*
G03*
X12867000Y-11557000I-40000J0D01*
G01*
X12867000Y-11811000D02*
G75*
G03*
X12867000Y-11811000I-40000J0D01*
G01*
X12867000Y-12065000D02*
G75*
G03*
X12867000Y-12065000I-40000J0D01*
G01*
X12867000Y-12319000D02*
G75*
G03*
X12867000Y-12319000I-40000J0D01*
G01*
X12867000Y-12573000D02*
G75*
G03*
X12867000Y-12573000I-40000J0D01*
G01*
X12867000Y-12827000D02*
G75*
G03*
X12867000Y-12827000I-40000J0D01*
G01*
X12867000Y-13081000D02*
G75*
G03*
X12867000Y-13081000I-40000J0D01*
G01*
X12867000Y-13335000D02*
G75*
G03*
X12867000Y-13335000I-40000J0D01*
G01*
X12867000Y-13589000D02*
G75*
G03*
X12867000Y-13589000I-40000J0D01*
G01*
X13629000Y-5588000D02*
G75*
G03*
X13629000Y-5588000I-40000J0D01*
G01*
X13629000Y-5842000D02*
G75*
G03*
X13629000Y-5842000I-40000J0D01*
G01*
X13629000Y-6096000D02*
G75*
G03*
X13629000Y-6096000I-40000J0D01*
G01*
X13629000Y-6350000D02*
G75*
G03*
X13629000Y-6350000I-40000J0D01*
G01*
X13629000Y-6604000D02*
G75*
G03*
X13629000Y-6604000I-40000J0D01*
G01*
X13629000Y-6858000D02*
G75*
G03*
X13629000Y-6858000I-40000J0D01*
G01*
X13629000Y-7112000D02*
G75*
G03*
X13629000Y-7112000I-40000J0D01*
G01*
X13629000Y-7366000D02*
G75*
G03*
X13629000Y-7366000I-40000J0D01*
G01*
X13629000Y-7620000D02*
G75*
G03*
X13629000Y-7620000I-40000J0D01*
G01*
X13629000Y-7874000D02*
G75*
G03*
X13629000Y-7874000I-40000J0D01*
G01*
X13629000Y-8128000D02*
G75*
G03*
X13629000Y-8128000I-40000J0D01*
G01*
X13629000Y-8382000D02*
G75*
G03*
X13629000Y-8382000I-40000J0D01*
G01*
X13629000Y-8636000D02*
G75*
G03*
X13629000Y-8636000I-40000J0D01*
G01*
X13629000Y-8890000D02*
G75*
G03*
X13629000Y-8890000I-40000J0D01*
G01*
X13629000Y-10287000D02*
G75*
G03*
X13629000Y-10287000I-40000J0D01*
G01*
X13629000Y-10541000D02*
G75*
G03*
X13629000Y-10541000I-40000J0D01*
G01*
X13629000Y-10795000D02*
G75*
G03*
X13629000Y-10795000I-40000J0D01*
G01*
X13629000Y-11049000D02*
G75*
G03*
X13629000Y-11049000I-40000J0D01*
G01*
X13629000Y-11303000D02*
G75*
G03*
X13629000Y-11303000I-40000J0D01*
G01*
X13629000Y-11557000D02*
G75*
G03*
X13629000Y-11557000I-40000J0D01*
G01*
X13629000Y-11811000D02*
G75*
G03*
X13629000Y-11811000I-40000J0D01*
G01*
X13629000Y-12065000D02*
G75*
G03*
X13629000Y-12065000I-40000J0D01*
G01*
X13629000Y-12319000D02*
G75*
G03*
X13629000Y-12319000I-40000J0D01*
G01*
X13629000Y-12573000D02*
G75*
G03*
X13629000Y-12573000I-40000J0D01*
G01*
X13629000Y-12827000D02*
G75*
G03*
X13629000Y-12827000I-40000J0D01*
G01*
X13629000Y-13081000D02*
G75*
G03*
X13629000Y-13081000I-40000J0D01*
G01*
X13629000Y-13335000D02*
G75*
G03*
X13629000Y-13335000I-40000J0D01*
G01*
X13629000Y-13589000D02*
G75*
G03*
X13629000Y-13589000I-40000J0D01*
G01*
X14391000Y-5588000D02*
G75*
G03*
X14391000Y-5588000I-40000J0D01*
G01*
X14391000Y-5842000D02*
G75*
G03*
X14391000Y-5842000I-40000J0D01*
G01*
X14391000Y-6096000D02*
G75*
G03*
X14391000Y-6096000I-40000J0D01*
G01*
X14391000Y-6350000D02*
G75*
G03*
X14391000Y-6350000I-40000J0D01*
G01*
X14391000Y-6604000D02*
G75*
G03*
X14391000Y-6604000I-40000J0D01*
G01*
X14391000Y-6858000D02*
G75*
G03*
X14391000Y-6858000I-40000J0D01*
G01*
X14391000Y-7112000D02*
G75*
G03*
X14391000Y-7112000I-40000J0D01*
G01*
X14391000Y-7366000D02*
G75*
G03*
X14391000Y-7366000I-40000J0D01*
G01*
X14391000Y-7620000D02*
G75*
G03*
X14391000Y-7620000I-40000J0D01*
G01*
X14391000Y-7874000D02*
G75*
G03*
X14391000Y-7874000I-40000J0D01*
G01*
X14391000Y-8128000D02*
G75*
G03*
X14391000Y-8128000I-40000J0D01*
G01*
X14391000Y-8382000D02*
G75*
G03*
X14391000Y-8382000I-40000J0D01*
G01*
X14391000Y-8636000D02*
G75*
G03*
X14391000Y-8636000I-40000J0D01*
G01*
X14391000Y-8890000D02*
G75*
G03*
X14391000Y-8890000I-40000J0D01*
G01*
X14391000Y-10287000D02*
G75*
G03*
X14391000Y-10287000I-40000J0D01*
G01*
X14391000Y-10541000D02*
G75*
G03*
X14391000Y-10541000I-40000J0D01*
G01*
X14391000Y-10795000D02*
G75*
G03*
X14391000Y-10795000I-40000J0D01*
G01*
X14391000Y-11049000D02*
G75*
G03*
X14391000Y-11049000I-40000J0D01*
G01*
X14391000Y-11303000D02*
G75*
G03*
X14391000Y-11303000I-40000J0D01*
G01*
X14391000Y-11557000D02*
G75*
G03*
X14391000Y-11557000I-40000J0D01*
G01*
X14391000Y-11811000D02*
G75*
G03*
X14391000Y-11811000I-40000J0D01*
G01*
X14391000Y-12065000D02*
G75*
G03*
X14391000Y-12065000I-40000J0D01*
G01*
X14391000Y-12319000D02*
G75*
G03*
X14391000Y-12319000I-40000J0D01*
G01*
X14391000Y-12573000D02*
G75*
G03*
X14391000Y-12573000I-40000J0D01*
G01*
X14391000Y-12827000D02*
G75*
G03*
X14391000Y-12827000I-40000J0D01*
G01*
X14391000Y-13081000D02*
G75*
G03*
X14391000Y-13081000I-40000J0D01*
G01*
X14391000Y-13335000D02*
G75*
G03*
X14391000Y-13335000I-40000J0D01*
G01*
X14391000Y-13589000D02*
G75*
G03*
X14391000Y-13589000I-40000J0D01*
G01*
X15153000Y-5588000D02*
G75*
G03*
X15153000Y-5588000I-40000J0D01*
G01*
X15153000Y-5842000D02*
G75*
G03*
X15153000Y-5842000I-40000J0D01*
G01*
X15153000Y-6096000D02*
G75*
G03*
X15153000Y-6096000I-40000J0D01*
G01*
X15153000Y-6350000D02*
G75*
G03*
X15153000Y-6350000I-40000J0D01*
G01*
X15153000Y-6604000D02*
G75*
G03*
X15153000Y-6604000I-40000J0D01*
G01*
X15153000Y-6858000D02*
G75*
G03*
X15153000Y-6858000I-40000J0D01*
G01*
X15153000Y-7112000D02*
G75*
G03*
X15153000Y-7112000I-40000J0D01*
G01*
X15153000Y-7366000D02*
G75*
G03*
X15153000Y-7366000I-40000J0D01*
G01*
X15153000Y-7620000D02*
G75*
G03*
X15153000Y-7620000I-40000J0D01*
G01*
X15153000Y-11557000D02*
G75*
G03*
X15153000Y-11557000I-40000J0D01*
G01*
X15153000Y-11811000D02*
G75*
G03*
X15153000Y-11811000I-40000J0D01*
G01*
X15153000Y-12065000D02*
G75*
G03*
X15153000Y-12065000I-40000J0D01*
G01*
X15153000Y-12319000D02*
G75*
G03*
X15153000Y-12319000I-40000J0D01*
G01*
X15153000Y-12573000D02*
G75*
G03*
X15153000Y-12573000I-40000J0D01*
G01*
X15153000Y-12827000D02*
G75*
G03*
X15153000Y-12827000I-40000J0D01*
G01*
X15153000Y-13081000D02*
G75*
G03*
X15153000Y-13081000I-40000J0D01*
G01*
X15153000Y-13335000D02*
G75*
G03*
X15153000Y-13335000I-40000J0D01*
G01*
X15153000Y-13589000D02*
G75*
G03*
X15153000Y-13589000I-40000J0D01*
G01*
X16423000Y-5588000D02*
G75*
G03*
X16423000Y-5588000I-40000J0D01*
G01*
X16423000Y-5842000D02*
G75*
G03*
X16423000Y-5842000I-40000J0D01*
G01*
X16423000Y-6096000D02*
G75*
G03*
X16423000Y-6096000I-40000J0D01*
G01*
X16423000Y-6350000D02*
G75*
G03*
X16423000Y-6350000I-40000J0D01*
G01*
X16423000Y-6604000D02*
G75*
G03*
X16423000Y-6604000I-40000J0D01*
G01*
X16423000Y-6858000D02*
G75*
G03*
X16423000Y-6858000I-40000J0D01*
G01*
X16423000Y-7112000D02*
G75*
G03*
X16423000Y-7112000I-40000J0D01*
G01*
X16423000Y-7366000D02*
G75*
G03*
X16423000Y-7366000I-40000J0D01*
G01*
X16423000Y-7620000D02*
G75*
G03*
X16423000Y-7620000I-40000J0D01*
G01*
X16423000Y-11557000D02*
G75*
G03*
X16423000Y-11557000I-40000J0D01*
G01*
X16423000Y-11811000D02*
G75*
G03*
X16423000Y-11811000I-40000J0D01*
G01*
X16423000Y-12065000D02*
G75*
G03*
X16423000Y-12065000I-40000J0D01*
G01*
X16423000Y-12319000D02*
G75*
G03*
X16423000Y-12319000I-40000J0D01*
G01*
X16423000Y-12573000D02*
G75*
G03*
X16423000Y-12573000I-40000J0D01*
G01*
X16423000Y-12827000D02*
G75*
G03*
X16423000Y-12827000I-40000J0D01*
G01*
X16423000Y-13081000D02*
G75*
G03*
X16423000Y-13081000I-40000J0D01*
G01*
X16423000Y-13335000D02*
G75*
G03*
X16423000Y-13335000I-40000J0D01*
G01*
X16423000Y-13589000D02*
G75*
G03*
X16423000Y-13589000I-40000J0D01*
G01*
X17185000Y-5588000D02*
G75*
G03*
X17185000Y-5588000I-40000J0D01*
G01*
X17185000Y-5842000D02*
G75*
G03*
X17185000Y-5842000I-40000J0D01*
G01*
X17185000Y-6096000D02*
G75*
G03*
X17185000Y-6096000I-40000J0D01*
G01*
X17185000Y-6350000D02*
G75*
G03*
X17185000Y-6350000I-40000J0D01*
G01*
X17185000Y-6604000D02*
G75*
G03*
X17185000Y-6604000I-40000J0D01*
G01*
X17185000Y-6858000D02*
G75*
G03*
X17185000Y-6858000I-40000J0D01*
G01*
X17185000Y-7112000D02*
G75*
G03*
X17185000Y-7112000I-40000J0D01*
G01*
X17185000Y-7366000D02*
G75*
G03*
X17185000Y-7366000I-40000J0D01*
G01*
X17185000Y-7620000D02*
G75*
G03*
X17185000Y-7620000I-40000J0D01*
G01*
X17185000Y-7874000D02*
G75*
G03*
X17185000Y-7874000I-40000J0D01*
G01*
X17185000Y-8128000D02*
G75*
G03*
X17185000Y-8128000I-40000J0D01*
G01*
X17185000Y-8382000D02*
G75*
G03*
X17185000Y-8382000I-40000J0D01*
G01*
X17185000Y-8636000D02*
G75*
G03*
X17185000Y-8636000I-40000J0D01*
G01*
X17185000Y-8890000D02*
G75*
G03*
X17185000Y-8890000I-40000J0D01*
G01*
X17185000Y-10287000D02*
G75*
G03*
X17185000Y-10287000I-40000J0D01*
G01*
X17185000Y-10541000D02*
G75*
G03*
X17185000Y-10541000I-40000J0D01*
G01*
X17185000Y-10795000D02*
G75*
G03*
X17185000Y-10795000I-40000J0D01*
G01*
X17185000Y-11049000D02*
G75*
G03*
X17185000Y-11049000I-40000J0D01*
G01*
X17185000Y-11303000D02*
G75*
G03*
X17185000Y-11303000I-40000J0D01*
G01*
X17185000Y-11557000D02*
G75*
G03*
X17185000Y-11557000I-40000J0D01*
G01*
X17185000Y-11811000D02*
G75*
G03*
X17185000Y-11811000I-40000J0D01*
G01*
X17185000Y-12065000D02*
G75*
G03*
X17185000Y-12065000I-40000J0D01*
G01*
X17185000Y-12319000D02*
G75*
G03*
X17185000Y-12319000I-40000J0D01*
G01*
X17185000Y-12573000D02*
G75*
G03*
X17185000Y-12573000I-40000J0D01*
G01*
X17185000Y-12827000D02*
G75*
G03*
X17185000Y-12827000I-40000J0D01*
G01*
X17185000Y-13081000D02*
G75*
G03*
X17185000Y-13081000I-40000J0D01*
G01*
X17185000Y-13335000D02*
G75*
G03*
X17185000Y-13335000I-40000J0D01*
G01*
X17185000Y-13589000D02*
G75*
G03*
X17185000Y-13589000I-40000J0D01*
G01*
X17947000Y-5588000D02*
G75*
G03*
X17947000Y-5588000I-40000J0D01*
G01*
X17947000Y-5842000D02*
G75*
G03*
X17947000Y-5842000I-40000J0D01*
G01*
X17947000Y-6096000D02*
G75*
G03*
X17947000Y-6096000I-40000J0D01*
G01*
X17947000Y-6350000D02*
G75*
G03*
X17947000Y-6350000I-40000J0D01*
G01*
X17947000Y-6604000D02*
G75*
G03*
X17947000Y-6604000I-40000J0D01*
G01*
X17947000Y-6858000D02*
G75*
G03*
X17947000Y-6858000I-40000J0D01*
G01*
X17947000Y-7112000D02*
G75*
G03*
X17947000Y-7112000I-40000J0D01*
G01*
X17947000Y-7366000D02*
G75*
G03*
X17947000Y-7366000I-40000J0D01*
G01*
X17947000Y-7620000D02*
G75*
G03*
X17947000Y-7620000I-40000J0D01*
G01*
X17947000Y-7874000D02*
G75*
G03*
X17947000Y-7874000I-40000J0D01*
G01*
X17947000Y-8128000D02*
G75*
G03*
X17947000Y-8128000I-40000J0D01*
G01*
X17947000Y-8382000D02*
G75*
G03*
X17947000Y-8382000I-40000J0D01*
G01*
X17947000Y-8636000D02*
G75*
G03*
X17947000Y-8636000I-40000J0D01*
G01*
X17947000Y-8890000D02*
G75*
G03*
X17947000Y-8890000I-40000J0D01*
G01*
X17947000Y-10287000D02*
G75*
G03*
X17947000Y-10287000I-40000J0D01*
G01*
X17947000Y-10541000D02*
G75*
G03*
X17947000Y-10541000I-40000J0D01*
G01*
X17947000Y-10795000D02*
G75*
G03*
X17947000Y-10795000I-40000J0D01*
G01*
X17947000Y-11049000D02*
G75*
G03*
X17947000Y-11049000I-40000J0D01*
G01*
X17947000Y-11303000D02*
G75*
G03*
X17947000Y-11303000I-40000J0D01*
G01*
X17947000Y-11557000D02*
G75*
G03*
X17947000Y-11557000I-40000J0D01*
G01*
X17947000Y-11811000D02*
G75*
G03*
X17947000Y-11811000I-40000J0D01*
G01*
X17947000Y-12065000D02*
G75*
G03*
X17947000Y-12065000I-40000J0D01*
G01*
X17947000Y-12319000D02*
G75*
G03*
X17947000Y-12319000I-40000J0D01*
G01*
X17947000Y-12573000D02*
G75*
G03*
X17947000Y-12573000I-40000J0D01*
G01*
X17947000Y-12827000D02*
G75*
G03*
X17947000Y-12827000I-40000J0D01*
G01*
X17947000Y-13081000D02*
G75*
G03*
X17947000Y-13081000I-40000J0D01*
G01*
X17947000Y-13335000D02*
G75*
G03*
X17947000Y-13335000I-40000J0D01*
G01*
X17947000Y-13589000D02*
G75*
G03*
X17947000Y-13589000I-40000J0D01*
G01*
X18709000Y-5588000D02*
G75*
G03*
X18709000Y-5588000I-40000J0D01*
G01*
X18709000Y-5842000D02*
G75*
G03*
X18709000Y-5842000I-40000J0D01*
G01*
X18709000Y-6096000D02*
G75*
G03*
X18709000Y-6096000I-40000J0D01*
G01*
X18709000Y-6350000D02*
G75*
G03*
X18709000Y-6350000I-40000J0D01*
G01*
X18709000Y-6604000D02*
G75*
G03*
X18709000Y-6604000I-40000J0D01*
G01*
X18709000Y-6858000D02*
G75*
G03*
X18709000Y-6858000I-40000J0D01*
G01*
X18709000Y-7112000D02*
G75*
G03*
X18709000Y-7112000I-40000J0D01*
G01*
X18709000Y-7366000D02*
G75*
G03*
X18709000Y-7366000I-40000J0D01*
G01*
X18709000Y-7620000D02*
G75*
G03*
X18709000Y-7620000I-40000J0D01*
G01*
X18709000Y-11557000D02*
G75*
G03*
X18709000Y-11557000I-40000J0D01*
G01*
X18709000Y-11811000D02*
G75*
G03*
X18709000Y-11811000I-40000J0D01*
G01*
X18709000Y-12065000D02*
G75*
G03*
X18709000Y-12065000I-40000J0D01*
G01*
X18709000Y-12319000D02*
G75*
G03*
X18709000Y-12319000I-40000J0D01*
G01*
X18709000Y-12573000D02*
G75*
G03*
X18709000Y-12573000I-40000J0D01*
G01*
X18709000Y-12827000D02*
G75*
G03*
X18709000Y-12827000I-40000J0D01*
G01*
X18709000Y-13081000D02*
G75*
G03*
X18709000Y-13081000I-40000J0D01*
G01*
X18709000Y-13335000D02*
G75*
G03*
X18709000Y-13335000I-40000J0D01*
G01*
X18709000Y-13589000D02*
G75*
G03*
X18709000Y-13589000I-40000J0D01*
G01*
X20360000Y-5842000D02*
G75*
G03*
X20360000Y-5842000I-40000J0D01*
G01*
X20610000Y-5842000D02*
G75*
G03*
X20610000Y-5842000I-40000J0D01*
G01*
X20741000Y-9906000D02*
G75*
G03*
X20741000Y-9906000I-40000J0D01*
G01*
X20741000Y-10668000D02*
G75*
G03*
X20741000Y-10668000I-40000J0D01*
G01*
X20741000Y-11557000D02*
G75*
G03*
X20741000Y-11557000I-40000J0D01*
G01*
X20741000Y-12319000D02*
G75*
G03*
X20741000Y-12319000I-40000J0D01*
G01*
X21249000Y-5342000D02*
G75*
G03*
X21249000Y-5342000I-40000J0D01*
G01*
X21249000Y-5842000D02*
G75*
G03*
X21249000Y-5842000I-40000J0D01*
G01*
X21503000Y-9906000D02*
G75*
G03*
X21503000Y-9906000I-40000J0D01*
G01*
X21503000Y-10668000D02*
G75*
G03*
X21503000Y-10668000I-40000J0D01*
G01*
X21503000Y-11557000D02*
G75*
G03*
X21503000Y-11557000I-40000J0D01*
G01*
X21503000Y-12319000D02*
G75*
G03*
X21503000Y-12319000I-40000J0D01*
G01*
X21888000Y-5842000D02*
G75*
G03*
X21888000Y-5842000I-40000J0D01*
G01*
X22138000Y-5842000D02*
G75*
G03*
X22138000Y-5842000I-40000J0D01*
G01*
X22265000Y-10033000D02*
G75*
G03*
X22265000Y-10033000I-40000J0D01*
G01*
X22265000Y-10287000D02*
G75*
G03*
X22265000Y-10287000I-40000J0D01*
G01*
X22265000Y-10541000D02*
G75*
G03*
X22265000Y-10541000I-40000J0D01*
G01*
X22265000Y-11684000D02*
G75*
G03*
X22265000Y-11684000I-40000J0D01*
G01*
X22265000Y-11938000D02*
G75*
G03*
X22265000Y-11938000I-40000J0D01*
G01*
X22265000Y-12192000D02*
G75*
G03*
X22265000Y-12192000I-40000J0D01*
G01*
X23154000Y-5334000D02*
G75*
G03*
X23154000Y-5334000I-40000J0D01*
G01*
X23154000Y-6096000D02*
G75*
G03*
X23154000Y-6096000I-40000J0D01*
G01*
X23916000Y-5338000D02*
G75*
G03*
X23916000Y-5338000I-40000J0D01*
G01*
X23916000Y-6100000D02*
G75*
G03*
X23916000Y-6100000I-40000J0D01*
G01*
X11684000Y-10872000D02*
X11684000Y-10972000D01*
X11634000Y-10922000D02*
X11734000Y-10922000D01*
X11684000Y-11126000D02*
X11684000Y-11226000D01*
X11634000Y-11176000D02*
X11734000Y-11176000D01*
X12573000Y-8840000D02*
X12573000Y-8940000D01*
X12523000Y-8890000D02*
X12623000Y-8890000D01*
X12573000Y-10237000D02*
X12573000Y-10337000D01*
X12523000Y-10287000D02*
X12623000Y-10287000D01*
X12827000Y-8840000D02*
X12827000Y-8940000D01*
X12777000Y-8890000D02*
X12877000Y-8890000D01*
X12827000Y-10237000D02*
X12827000Y-10337000D01*
X12777000Y-10287000D02*
X12877000Y-10287000D01*
X13081000Y-8840000D02*
X13081000Y-8940000D01*
X13031000Y-8890000D02*
X13131000Y-8890000D01*
X13081000Y-10237000D02*
X13081000Y-10337000D01*
X13031000Y-10287000D02*
X13131000Y-10287000D01*
X14859000Y-8840000D02*
X14859000Y-8940000D01*
X14809000Y-8890000D02*
X14909000Y-8890000D01*
X14859000Y-10237000D02*
X14859000Y-10337000D01*
X14809000Y-10287000D02*
X14909000Y-10287000D01*
X15113000Y-8840000D02*
X15113000Y-8940000D01*
X15063000Y-8890000D02*
X15163000Y-8890000D01*
X15113000Y-10237000D02*
X15113000Y-10337000D01*
X15063000Y-10287000D02*
X15163000Y-10287000D01*
X15367000Y-8840000D02*
X15367000Y-8940000D01*
X15317000Y-8890000D02*
X15417000Y-8890000D01*
X15367000Y-10237000D02*
X15367000Y-10337000D01*
X15317000Y-10287000D02*
X15417000Y-10287000D01*
X16129000Y-8840000D02*
X16129000Y-8940000D01*
X16079000Y-8890000D02*
X16179000Y-8890000D01*
X16129000Y-10237000D02*
X16129000Y-10337000D01*
X16079000Y-10287000D02*
X16179000Y-10287000D01*
X16383000Y-8840000D02*
X16383000Y-8940000D01*
X16333000Y-8890000D02*
X16433000Y-8890000D01*
X16383000Y-10237000D02*
X16383000Y-10337000D01*
X16333000Y-10287000D02*
X16433000Y-10287000D01*
X16637000Y-8840000D02*
X16637000Y-8940000D01*
X16587000Y-8890000D02*
X16687000Y-8890000D01*
X16637000Y-10237000D02*
X16637000Y-10337000D01*
X16587000Y-10287000D02*
X16687000Y-10287000D01*
X18415000Y-8840000D02*
X18415000Y-8940000D01*
X18365000Y-8890000D02*
X18465000Y-8890000D01*
X18415000Y-10237000D02*
X18415000Y-10337000D01*
X18365000Y-10287000D02*
X18465000Y-10287000D01*
X18669000Y-8840000D02*
X18669000Y-8940000D01*
X18619000Y-8890000D02*
X18719000Y-8890000D01*
X18669000Y-10237000D02*
X18669000Y-10337000D01*
X18619000Y-10287000D02*
X18719000Y-10287000D01*
X18923000Y-8840000D02*
X18923000Y-8940000D01*
X18873000Y-8890000D02*
X18973000Y-8890000D01*
X18923000Y-10237000D02*
X18923000Y-10337000D01*
X18873000Y-10287000D02*
X18973000Y-10287000D01*
X21463000Y-6808000D02*
X21463000Y-6908000D01*
X21413000Y-6858000D02*
X21513000Y-6858000D01*
X21717000Y-6808000D02*
X21717000Y-6908000D01*
X21667000Y-6858000D02*
X21767000Y-6858000D01*
X23114000Y-15507500D02*
X23114000Y-15607500D01*
X23064000Y-15557500D02*
X23164000Y-15557500D01*
X23368000Y-15507500D02*
X23368000Y-15607500D01*
X23318000Y-15557500D02*
X23418000Y-15557500D01*
X12862921Y-4607921D02*
X12862921Y-4536079D01*
X12791079Y-4536079D01*
X12791079Y-4607921D01*
X12862921Y-4607921D01*
X12862921Y-4861921D02*
X12862921Y-4790079D01*
X12791079Y-4790079D01*
X12791079Y-4861921D01*
X12862921Y-4861921D01*
X12862921Y-14386921D02*
X12862921Y-14315079D01*
X12791079Y-14315079D01*
X12791079Y-14386921D01*
X12862921Y-14386921D01*
X12862921Y-14640921D02*
X12862921Y-14569079D01*
X12791079Y-14569079D01*
X12791079Y-14640921D01*
X12862921Y-14640921D01*
X13116921Y-4607921D02*
X13116921Y-4536079D01*
X13045079Y-4536079D01*
X13045079Y-4607921D01*
X13116921Y-4607921D01*
X13116921Y-4861921D02*
X13116921Y-4790079D01*
X13045079Y-4790079D01*
X13045079Y-4861921D01*
X13116921Y-4861921D01*
X13116921Y-14386921D02*
X13116921Y-14315079D01*
X13045079Y-14315079D01*
X13045079Y-14386921D01*
X13116921Y-14386921D01*
X13116921Y-14640921D02*
X13116921Y-14569079D01*
X13045079Y-14569079D01*
X13045079Y-14640921D01*
X13116921Y-14640921D01*
X13370921Y-4607921D02*
X13370921Y-4536079D01*
X13299079Y-4536079D01*
X13299079Y-4607921D01*
X13370921Y-4607921D01*
X13370921Y-4861921D02*
X13370921Y-4790079D01*
X13299079Y-4790079D01*
X13299079Y-4861921D01*
X13370921Y-4861921D01*
X13370921Y-14386921D02*
X13370921Y-14315079D01*
X13299079Y-14315079D01*
X13299079Y-14386921D01*
X13370921Y-14386921D01*
X13370921Y-14640921D02*
X13370921Y-14569079D01*
X13299079Y-14569079D01*
X13299079Y-14640921D01*
X13370921Y-14640921D01*
X13624921Y-4607921D02*
X13624921Y-4536079D01*
X13553079Y-4536079D01*
X13553079Y-4607921D01*
X13624921Y-4607921D01*
X13624921Y-4861921D02*
X13624921Y-4790079D01*
X13553079Y-4790079D01*
X13553079Y-4861921D01*
X13624921Y-4861921D01*
X13624921Y-14386921D02*
X13624921Y-14315079D01*
X13553079Y-14315079D01*
X13553079Y-14386921D01*
X13624921Y-14386921D01*
X13624921Y-14640921D02*
X13624921Y-14569079D01*
X13553079Y-14569079D01*
X13553079Y-14640921D01*
X13624921Y-14640921D01*
X13878921Y-4607921D02*
X13878921Y-4536079D01*
X13807079Y-4536079D01*
X13807079Y-4607921D01*
X13878921Y-4607921D01*
X13878921Y-4861921D02*
X13878921Y-4790079D01*
X13807079Y-4790079D01*
X13807079Y-4861921D01*
X13878921Y-4861921D01*
X13878921Y-14386921D02*
X13878921Y-14315079D01*
X13807079Y-14315079D01*
X13807079Y-14386921D01*
X13878921Y-14386921D01*
X13878921Y-14640921D02*
X13878921Y-14569079D01*
X13807079Y-14569079D01*
X13807079Y-14640921D01*
X13878921Y-14640921D01*
X14132921Y-4607921D02*
X14132921Y-4536079D01*
X14061079Y-4536079D01*
X14061079Y-4607921D01*
X14132921Y-4607921D01*
X14132921Y-4861921D02*
X14132921Y-4790079D01*
X14061079Y-4790079D01*
X14061079Y-4861921D01*
X14132921Y-4861921D01*
X14132921Y-14386921D02*
X14132921Y-14315079D01*
X14061079Y-14315079D01*
X14061079Y-14386921D01*
X14132921Y-14386921D01*
X14132921Y-14640921D02*
X14132921Y-14569079D01*
X14061079Y-14569079D01*
X14061079Y-14640921D01*
X14132921Y-14640921D01*
X14386921Y-4607921D02*
X14386921Y-4536079D01*
X14315079Y-4536079D01*
X14315079Y-4607921D01*
X14386921Y-4607921D01*
X14386921Y-4861921D02*
X14386921Y-4790079D01*
X14315079Y-4790079D01*
X14315079Y-4861921D01*
X14386921Y-4861921D01*
X14386921Y-14386921D02*
X14386921Y-14315079D01*
X14315079Y-14315079D01*
X14315079Y-14386921D01*
X14386921Y-14386921D01*
X14386921Y-14640921D02*
X14386921Y-14569079D01*
X14315079Y-14569079D01*
X14315079Y-14640921D01*
X14386921Y-14640921D01*
X14640921Y-4607921D02*
X14640921Y-4536079D01*
X14569079Y-4536079D01*
X14569079Y-4607921D01*
X14640921Y-4607921D01*
X14640921Y-4861921D02*
X14640921Y-4790079D01*
X14569079Y-4790079D01*
X14569079Y-4861921D01*
X14640921Y-4861921D01*
X14640921Y-14386921D02*
X14640921Y-14315079D01*
X14569079Y-14315079D01*
X14569079Y-14386921D01*
X14640921Y-14386921D01*
X14640921Y-14640921D02*
X14640921Y-14569079D01*
X14569079Y-14569079D01*
X14569079Y-14640921D01*
X14640921Y-14640921D01*
X14894921Y-4607921D02*
X14894921Y-4536079D01*
X14823079Y-4536079D01*
X14823079Y-4607921D01*
X14894921Y-4607921D01*
X14894921Y-4861921D02*
X14894921Y-4790079D01*
X14823079Y-4790079D01*
X14823079Y-4861921D01*
X14894921Y-4861921D01*
X14894921Y-14386921D02*
X14894921Y-14315079D01*
X14823079Y-14315079D01*
X14823079Y-14386921D01*
X14894921Y-14386921D01*
X14894921Y-14640921D02*
X14894921Y-14569079D01*
X14823079Y-14569079D01*
X14823079Y-14640921D01*
X14894921Y-14640921D01*
X15148921Y-4607921D02*
X15148921Y-4536079D01*
X15077079Y-4536079D01*
X15077079Y-4607921D01*
X15148921Y-4607921D01*
X15148921Y-4861921D02*
X15148921Y-4790079D01*
X15077079Y-4790079D01*
X15077079Y-4861921D01*
X15148921Y-4861921D01*
X15148921Y-14386921D02*
X15148921Y-14315079D01*
X15077079Y-14315079D01*
X15077079Y-14386921D01*
X15148921Y-14386921D01*
X15148921Y-14640921D02*
X15148921Y-14569079D01*
X15077079Y-14569079D01*
X15077079Y-14640921D01*
X15148921Y-14640921D01*
X16418921Y-4607921D02*
X16418921Y-4536079D01*
X16347079Y-4536079D01*
X16347079Y-4607921D01*
X16418921Y-4607921D01*
X16418921Y-4861921D02*
X16418921Y-4790079D01*
X16347079Y-4790079D01*
X16347079Y-4861921D01*
X16418921Y-4861921D01*
X16418921Y-14386921D02*
X16418921Y-14315079D01*
X16347079Y-14315079D01*
X16347079Y-14386921D01*
X16418921Y-14386921D01*
X16418921Y-14640921D02*
X16418921Y-14569079D01*
X16347079Y-14569079D01*
X16347079Y-14640921D01*
X16418921Y-14640921D01*
X16672921Y-4607921D02*
X16672921Y-4536079D01*
X16601079Y-4536079D01*
X16601079Y-4607921D01*
X16672921Y-4607921D01*
X16672921Y-4861921D02*
X16672921Y-4790079D01*
X16601079Y-4790079D01*
X16601079Y-4861921D01*
X16672921Y-4861921D01*
X16672921Y-14386921D02*
X16672921Y-14315079D01*
X16601079Y-14315079D01*
X16601079Y-14386921D01*
X16672921Y-14386921D01*
X16672921Y-14640921D02*
X16672921Y-14569079D01*
X16601079Y-14569079D01*
X16601079Y-14640921D01*
X16672921Y-14640921D01*
X16926921Y-4607921D02*
X16926921Y-4536079D01*
X16855079Y-4536079D01*
X16855079Y-4607921D01*
X16926921Y-4607921D01*
X16926921Y-4861921D02*
X16926921Y-4790079D01*
X16855079Y-4790079D01*
X16855079Y-4861921D01*
X16926921Y-4861921D01*
X16926921Y-14386921D02*
X16926921Y-14315079D01*
X16855079Y-14315079D01*
X16855079Y-14386921D01*
X16926921Y-14386921D01*
X16926921Y-14640921D02*
X16926921Y-14569079D01*
X16855079Y-14569079D01*
X16855079Y-14640921D01*
X16926921Y-14640921D01*
X17180921Y-4607921D02*
X17180921Y-4536079D01*
X17109079Y-4536079D01*
X17109079Y-4607921D01*
X17180921Y-4607921D01*
X17180921Y-4861921D02*
X17180921Y-4790079D01*
X17109079Y-4790079D01*
X17109079Y-4861921D01*
X17180921Y-4861921D01*
X17180921Y-14386921D02*
X17180921Y-14315079D01*
X17109079Y-14315079D01*
X17109079Y-14386921D01*
X17180921Y-14386921D01*
X17180921Y-14640921D02*
X17180921Y-14569079D01*
X17109079Y-14569079D01*
X17109079Y-14640921D01*
X17180921Y-14640921D01*
X17434921Y-4607921D02*
X17434921Y-4536079D01*
X17363079Y-4536079D01*
X17363079Y-4607921D01*
X17434921Y-4607921D01*
X17434921Y-4861921D02*
X17434921Y-4790079D01*
X17363079Y-4790079D01*
X17363079Y-4861921D01*
X17434921Y-4861921D01*
X17434921Y-14386921D02*
X17434921Y-14315079D01*
X17363079Y-14315079D01*
X17363079Y-14386921D01*
X17434921Y-14386921D01*
X17434921Y-14640921D02*
X17434921Y-14569079D01*
X17363079Y-14569079D01*
X17363079Y-14640921D01*
X17434921Y-14640921D01*
X17688921Y-4607921D02*
X17688921Y-4536079D01*
X17617079Y-4536079D01*
X17617079Y-4607921D01*
X17688921Y-4607921D01*
X17688921Y-4861921D02*
X17688921Y-4790079D01*
X17617079Y-4790079D01*
X17617079Y-4861921D01*
X17688921Y-4861921D01*
X17688921Y-14386921D02*
X17688921Y-14315079D01*
X17617079Y-14315079D01*
X17617079Y-14386921D01*
X17688921Y-14386921D01*
X17688921Y-14640921D02*
X17688921Y-14569079D01*
X17617079Y-14569079D01*
X17617079Y-14640921D01*
X17688921Y-14640921D01*
X17942921Y-4607921D02*
X17942921Y-4536079D01*
X17871079Y-4536079D01*
X17871079Y-4607921D01*
X17942921Y-4607921D01*
X17942921Y-4861921D02*
X17942921Y-4790079D01*
X17871079Y-4790079D01*
X17871079Y-4861921D01*
X17942921Y-4861921D01*
X17942921Y-14386921D02*
X17942921Y-14315079D01*
X17871079Y-14315079D01*
X17871079Y-14386921D01*
X17942921Y-14386921D01*
X17942921Y-14640921D02*
X17942921Y-14569079D01*
X17871079Y-14569079D01*
X17871079Y-14640921D01*
X17942921Y-14640921D01*
X18196921Y-4607921D02*
X18196921Y-4536079D01*
X18125079Y-4536079D01*
X18125079Y-4607921D01*
X18196921Y-4607921D01*
X18196921Y-4861921D02*
X18196921Y-4790079D01*
X18125079Y-4790079D01*
X18125079Y-4861921D01*
X18196921Y-4861921D01*
X18196921Y-14386921D02*
X18196921Y-14315079D01*
X18125079Y-14315079D01*
X18125079Y-14386921D01*
X18196921Y-14386921D01*
X18196921Y-14640921D02*
X18196921Y-14569079D01*
X18125079Y-14569079D01*
X18125079Y-14640921D01*
X18196921Y-14640921D01*
X18450921Y-4607921D02*
X18450921Y-4536079D01*
X18379079Y-4536079D01*
X18379079Y-4607921D01*
X18450921Y-4607921D01*
X18450921Y-4861921D02*
X18450921Y-4790079D01*
X18379079Y-4790079D01*
X18379079Y-4861921D01*
X18450921Y-4861921D01*
X18450921Y-14386921D02*
X18450921Y-14315079D01*
X18379079Y-14315079D01*
X18379079Y-14386921D01*
X18450921Y-14386921D01*
X18450921Y-14640921D02*
X18450921Y-14569079D01*
X18379079Y-14569079D01*
X18379079Y-14640921D01*
X18450921Y-14640921D01*
X18704921Y-4607921D02*
X18704921Y-4536079D01*
X18633079Y-4536079D01*
X18633079Y-4607921D01*
X18704921Y-4607921D01*
X18704921Y-4861921D02*
X18704921Y-4790079D01*
X18633079Y-4790079D01*
X18633079Y-4861921D01*
X18704921Y-4861921D01*
X18704921Y-14386921D02*
X18704921Y-14315079D01*
X18633079Y-14315079D01*
X18633079Y-14386921D01*
X18704921Y-14386921D01*
X18704921Y-14640921D02*
X18704921Y-14569079D01*
X18633079Y-14569079D01*
X18633079Y-14640921D01*
X18704921Y-14640921D01*
X23911921Y-9560921D02*
X23911921Y-9489079D01*
X23840079Y-9489079D01*
X23840079Y-9560921D01*
X23911921Y-9560921D01*
X23911921Y-9814921D02*
X23911921Y-9743079D01*
X23840079Y-9743079D01*
X23840079Y-9814921D01*
X23911921Y-9814921D01*
X23911921Y-10068921D02*
X23911921Y-9997079D01*
X23840079Y-9997079D01*
X23840079Y-10068921D01*
X23911921Y-10068921D01*
X23911921Y-10322921D02*
X23911921Y-10251079D01*
X23840079Y-10251079D01*
X23840079Y-10322921D01*
X23911921Y-10322921D01*
X23911921Y-10576921D02*
X23911921Y-10505079D01*
X23840079Y-10505079D01*
X23840079Y-10576921D01*
X23911921Y-10576921D01*
X23911921Y-10830921D02*
X23911921Y-10759079D01*
X23840079Y-10759079D01*
X23840079Y-10830921D01*
X23911921Y-10830921D01*
X23911921Y-11084921D02*
X23911921Y-11013079D01*
X23840079Y-11013079D01*
X23840079Y-11084921D01*
X23911921Y-11084921D01*
X23911921Y-11338921D02*
X23911921Y-11267079D01*
X23840079Y-11267079D01*
X23840079Y-11338921D01*
X23911921Y-11338921D01*
X23911921Y-11592921D02*
X23911921Y-11521079D01*
X23840079Y-11521079D01*
X23840079Y-11592921D01*
X23911921Y-11592921D01*
X23911921Y-11846921D02*
X23911921Y-11775079D01*
X23840079Y-11775079D01*
X23840079Y-11846921D01*
X23911921Y-11846921D01*
X23911921Y-12100921D02*
X23911921Y-12029079D01*
X23840079Y-12029079D01*
X23840079Y-12100921D01*
X23911921Y-12100921D01*
X23911921Y-12354921D02*
X23911921Y-12283079D01*
X23840079Y-12283079D01*
X23840079Y-12354921D01*
X23911921Y-12354921D01*
X23911921Y-12608921D02*
X23911921Y-12537079D01*
X23840079Y-12537079D01*
X23840079Y-12608921D01*
X23911921Y-12608921D01*
X23911921Y-12862921D02*
X23911921Y-12791079D01*
X23840079Y-12791079D01*
X23840079Y-12862921D01*
X23911921Y-12862921D01*
X23911921Y-13116921D02*
X23911921Y-13045079D01*
X23840079Y-13045079D01*
X23840079Y-13116921D01*
X23911921Y-13116921D01*
X23911921Y-13370921D02*
X23911921Y-13299079D01*
X23840079Y-13299079D01*
X23840079Y-13370921D01*
X23911921Y-13370921D01*
X23911921Y-13624921D02*
X23911921Y-13553079D01*
X23840079Y-13553079D01*
X23840079Y-13624921D01*
X23911921Y-13624921D01*
X23911921Y-13878921D02*
X23911921Y-13807079D01*
X23840079Y-13807079D01*
X23840079Y-13878921D01*
X23911921Y-13878921D01*
X23911921Y-14132921D02*
X23911921Y-14061079D01*
X23840079Y-14061079D01*
X23840079Y-14132921D01*
X23911921Y-14132921D01*
X23911921Y-14386921D02*
X23911921Y-14315079D01*
X23840079Y-14315079D01*
X23840079Y-14386921D01*
X23911921Y-14386921D01*
X24165921Y-9560921D02*
X24165921Y-9489079D01*
X24094079Y-9489079D01*
X24094079Y-9560921D01*
X24165921Y-9560921D01*
X24165921Y-9814921D02*
X24165921Y-9743079D01*
X24094079Y-9743079D01*
X24094079Y-9814921D01*
X24165921Y-9814921D01*
X24165921Y-10068921D02*
X24165921Y-9997079D01*
X24094079Y-9997079D01*
X24094079Y-10068921D01*
X24165921Y-10068921D01*
X24165921Y-10322921D02*
X24165921Y-10251079D01*
X24094079Y-10251079D01*
X24094079Y-10322921D01*
X24165921Y-10322921D01*
X24165921Y-10576921D02*
X24165921Y-10505079D01*
X24094079Y-10505079D01*
X24094079Y-10576921D01*
X24165921Y-10576921D01*
X24165921Y-10830921D02*
X24165921Y-10759079D01*
X24094079Y-10759079D01*
X24094079Y-10830921D01*
X24165921Y-10830921D01*
X24165921Y-11084921D02*
X24165921Y-11013079D01*
X24094079Y-11013079D01*
X24094079Y-11084921D01*
X24165921Y-11084921D01*
X24165921Y-11338921D02*
X24165921Y-11267079D01*
X24094079Y-11267079D01*
X24094079Y-11338921D01*
X24165921Y-11338921D01*
X24165921Y-11592921D02*
X24165921Y-11521079D01*
X24094079Y-11521079D01*
X24094079Y-11592921D01*
X24165921Y-11592921D01*
X24165921Y-11846921D02*
X24165921Y-11775079D01*
X24094079Y-11775079D01*
X24094079Y-11846921D01*
X24165921Y-11846921D01*
X24165921Y-12100921D02*
X24165921Y-12029079D01*
X24094079Y-12029079D01*
X24094079Y-12100921D01*
X24165921Y-12100921D01*
X24165921Y-12354921D02*
X24165921Y-12283079D01*
X24094079Y-12283079D01*
X24094079Y-12354921D01*
X24165921Y-12354921D01*
X24165921Y-12608921D02*
X24165921Y-12537079D01*
X24094079Y-12537079D01*
X24094079Y-12608921D01*
X24165921Y-12608921D01*
X24165921Y-12862921D02*
X24165921Y-12791079D01*
X24094079Y-12791079D01*
X24094079Y-12862921D01*
X24165921Y-12862921D01*
X24165921Y-13116921D02*
X24165921Y-13045079D01*
X24094079Y-13045079D01*
X24094079Y-13116921D01*
X24165921Y-13116921D01*
X24165921Y-13370921D02*
X24165921Y-13299079D01*
X24094079Y-13299079D01*
X24094079Y-13370921D01*
X24165921Y-13370921D01*
X24165921Y-13624921D02*
X24165921Y-13553079D01*
X24094079Y-13553079D01*
X24094079Y-13624921D01*
X24165921Y-13624921D01*
X24165921Y-13878921D02*
X24165921Y-13807079D01*
X24094079Y-13807079D01*
X24094079Y-13878921D01*
X24165921Y-13878921D01*
X24165921Y-14132921D02*
X24165921Y-14061079D01*
X24094079Y-14061079D01*
X24094079Y-14132921D01*
X24165921Y-14132921D01*
X24165921Y-14386921D02*
X24165921Y-14315079D01*
X24094079Y-14315079D01*
X24094079Y-14386921D01*
X24165921Y-14386921D01*
X20320000Y-6913000D02*
X20375000Y-6858000D01*
X20320000Y-6803000D01*
X20265000Y-6858000D01*
X20320000Y-6913000D01*
X20574000Y-6913000D02*
X20629000Y-6858000D01*
X20574000Y-6803000D01*
X20519000Y-6858000D01*
X20574000Y-6913000D01*
X20828000Y-6913000D02*
X20883000Y-6858000D01*
X20828000Y-6803000D01*
X20773000Y-6858000D01*
X20828000Y-6913000D01*
X22352000Y-6913000D02*
X22407000Y-6858000D01*
X22352000Y-6803000D01*
X22297000Y-6858000D01*
X22352000Y-6913000D01*
X22606000Y-6913000D02*
X22661000Y-6858000D01*
X22606000Y-6803000D01*
X22551000Y-6858000D01*
X22606000Y-6913000D01*
X22860000Y-6913000D02*
X22915000Y-6858000D01*
X22860000Y-6803000D01*
X22805000Y-6858000D01*
X22860000Y-6913000D01*
X20133000Y-14291000D02*
X20253000Y-14411000D01*
X20253000Y-14291000D02*
X20133000Y-14411000D01*
X20253000Y-14351000D02*
G75*
G03*
X20253000Y-14351000I-60000J0D01*
G01*
X20133000Y-15434000D02*
X20253000Y-15554000D01*
X20253000Y-15434000D02*
X20133000Y-15554000D01*
X20253000Y-15494000D02*
G75*
G03*
X20253000Y-15494000I-60000J0D01*
G01*
X20387000Y-14291000D02*
X20507000Y-14411000D01*
X20507000Y-14291000D02*
X20387000Y-14411000D01*
X20507000Y-14351000D02*
G75*
G03*
X20507000Y-14351000I-60000J0D01*
G01*
X20387000Y-15434000D02*
X20507000Y-15554000D01*
X20507000Y-15434000D02*
X20387000Y-15554000D01*
X20507000Y-15494000D02*
G75*
G03*
X20507000Y-15494000I-60000J0D01*
G01*
X20641000Y-14291000D02*
X20761000Y-14411000D01*
X20761000Y-14291000D02*
X20641000Y-14411000D01*
X20761000Y-14351000D02*
G75*
G03*
X20761000Y-14351000I-60000J0D01*
G01*
X20641000Y-15434000D02*
X20761000Y-15554000D01*
X20761000Y-15434000D02*
X20641000Y-15554000D01*
X20761000Y-15494000D02*
G75*
G03*
X20761000Y-15494000I-60000J0D01*
G01*
X20895000Y-14291000D02*
X21015000Y-14411000D01*
X21015000Y-14291000D02*
X20895000Y-14411000D01*
X21015000Y-14351000D02*
G75*
G03*
X21015000Y-14351000I-60000J0D01*
G01*
X20895000Y-15434000D02*
X21015000Y-15554000D01*
X21015000Y-15434000D02*
X20895000Y-15554000D01*
X21015000Y-15494000D02*
G75*
G03*
X21015000Y-15494000I-60000J0D01*
G01*
X21657000Y-14291000D02*
X21777000Y-14411000D01*
X21777000Y-14291000D02*
X21657000Y-14411000D01*
X21777000Y-14351000D02*
G75*
G03*
X21777000Y-14351000I-60000J0D01*
G01*
X21657000Y-15434000D02*
X21777000Y-15554000D01*
X21777000Y-15434000D02*
X21657000Y-15554000D01*
X21777000Y-15494000D02*
G75*
G03*
X21777000Y-15494000I-60000J0D01*
G01*
X21911000Y-14291000D02*
X22031000Y-14411000D01*
X22031000Y-14291000D02*
X21911000Y-14411000D01*
X22031000Y-14351000D02*
G75*
G03*
X22031000Y-14351000I-60000J0D01*
G01*
X21911000Y-15434000D02*
X22031000Y-15554000D01*
X22031000Y-15434000D02*
X21911000Y-15554000D01*
X22031000Y-15494000D02*
G75*
G03*
X22031000Y-15494000I-60000J0D01*
G01*
X22165000Y-14291000D02*
X22285000Y-14411000D01*
X22285000Y-14291000D02*
X22165000Y-14411000D01*
X22285000Y-14351000D02*
G75*
G03*
X22285000Y-14351000I-60000J0D01*
G01*
X22165000Y-15434000D02*
X22285000Y-15554000D01*
X22285000Y-15434000D02*
X22165000Y-15554000D01*
X22285000Y-15494000D02*
G75*
G03*
X22285000Y-15494000I-60000J0D01*
G01*
X22419000Y-14291000D02*
X22539000Y-14411000D01*
X22539000Y-14291000D02*
X22419000Y-14411000D01*
X22539000Y-14351000D02*
G75*
G03*
X22539000Y-14351000I-60000J0D01*
G01*
X22419000Y-15434000D02*
X22539000Y-15554000D01*
X22539000Y-15434000D02*
X22419000Y-15554000D01*
X22539000Y-15494000D02*
G75*
G03*
X22539000Y-15494000I-60000J0D01*
G01*
X20752000Y-4242000D02*
X20904000Y-4394000D01*
X20904000Y-4242000D02*
X20752000Y-4394000D01*
X20828000Y-4242000D02*
X20828000Y-4394000D01*
X20752000Y-4318000D02*
X20904000Y-4318000D01*
X21260000Y-4242000D02*
X21412000Y-4394000D01*
X21412000Y-4242000D02*
X21260000Y-4394000D01*
X21336000Y-4242000D02*
X21336000Y-4394000D01*
X21260000Y-4318000D02*
X21412000Y-4318000D01*
X21768000Y-4242000D02*
X21920000Y-4394000D01*
X21920000Y-4242000D02*
X21768000Y-4394000D01*
X21844000Y-4242000D02*
X21844000Y-4394000D01*
X21768000Y-4318000D02*
X21920000Y-4318000D01*
X23000000Y-4218000D02*
X23200000Y-4418000D01*
X23200000Y-4218000D02*
X23000000Y-4418000D01*
X23170711Y-4388711D02*
X23170711Y-4247289D01*
X23029289Y-4247289D01*
X23029289Y-4388711D01*
X23170711Y-4388711D01*
X23300000Y-3748000D02*
X23500000Y-3948000D01*
X23500000Y-3748000D02*
X23300000Y-3948000D01*
X23470711Y-3918711D02*
X23470711Y-3777289D01*
X23329289Y-3777289D01*
X23329289Y-3918711D01*
X23470711Y-3918711D01*
X23600000Y-4218000D02*
X23800000Y-4418000D01*
X23800000Y-4218000D02*
X23600000Y-4418000D01*
X23770711Y-4388711D02*
X23770711Y-4247289D01*
X23629289Y-4247289D01*
X23629289Y-4388711D01*
X23770711Y-4388711D01*
D12*
X11327928Y-16475214D02*
X11327928Y-16175214D01*
X11399357Y-16175214D01*
X11442214Y-16189500D01*
X11470786Y-16218071D01*
X11485071Y-16246643D01*
X11499357Y-16303786D01*
X11499357Y-16346643D01*
X11485071Y-16403786D01*
X11470786Y-16432357D01*
X11442214Y-16460929D01*
X11399357Y-16475214D01*
X11327928Y-16475214D01*
X11627928Y-16475214D02*
X11627928Y-16275214D01*
X11627928Y-16332357D02*
X11642214Y-16303786D01*
X11656500Y-16289500D01*
X11685071Y-16275214D01*
X11713643Y-16275214D01*
X11813643Y-16475214D02*
X11813643Y-16275214D01*
X11813643Y-16175214D02*
X11799357Y-16189500D01*
X11813643Y-16203786D01*
X11827928Y-16189500D01*
X11813643Y-16175214D01*
X11813643Y-16203786D01*
X11999357Y-16475214D02*
X11970786Y-16460929D01*
X11956500Y-16432357D01*
X11956500Y-16175214D01*
X12156500Y-16475214D02*
X12127928Y-16460929D01*
X12113643Y-16432357D01*
X12113643Y-16175214D01*
X12499357Y-16475214D02*
X12499357Y-16175214D01*
X12599357Y-16389500D01*
X12699357Y-16175214D01*
X12699357Y-16475214D01*
X12970786Y-16475214D02*
X12970786Y-16318071D01*
X12956500Y-16289500D01*
X12927928Y-16275214D01*
X12870786Y-16275214D01*
X12842214Y-16289500D01*
X12970786Y-16460929D02*
X12942214Y-16475214D01*
X12870786Y-16475214D01*
X12842214Y-16460929D01*
X12827928Y-16432357D01*
X12827928Y-16403786D01*
X12842214Y-16375214D01*
X12870786Y-16360929D01*
X12942214Y-16360929D01*
X12970786Y-16346643D01*
X13113643Y-16275214D02*
X13113643Y-16575214D01*
X13113643Y-16289500D02*
X13142214Y-16275214D01*
X13199357Y-16275214D01*
X13227928Y-16289500D01*
X13242214Y-16303786D01*
X13256500Y-16332357D01*
X13256500Y-16418071D01*
X13242214Y-16446643D01*
X13227928Y-16460929D01*
X13199357Y-16475214D01*
X13142214Y-16475214D01*
X13113643Y-16460929D01*
X13385071Y-16446643D02*
X13399357Y-16460929D01*
X13385071Y-16475214D01*
X13370786Y-16460929D01*
X13385071Y-16446643D01*
X13385071Y-16475214D01*
X13385071Y-16289500D02*
X13399357Y-16303786D01*
X13385071Y-16318071D01*
X13370786Y-16303786D01*
X13385071Y-16289500D01*
X13385071Y-16318071D01*
X11001500Y-16949500D02*
X11041500Y-16989500D01*
X11041500Y-16949500D02*
X11001500Y-16989500D01*
X11385071Y-16805214D02*
X11413643Y-16805214D01*
X11442214Y-16819500D01*
X11456500Y-16833786D01*
X11470786Y-16862357D01*
X11485071Y-16919500D01*
X11485071Y-16990929D01*
X11470786Y-17048072D01*
X11456500Y-17076643D01*
X11442214Y-17090929D01*
X11413643Y-17105214D01*
X11385071Y-17105214D01*
X11356500Y-17090929D01*
X11342214Y-17076643D01*
X11327928Y-17048072D01*
X11313643Y-16990929D01*
X11313643Y-16919500D01*
X11327928Y-16862357D01*
X11342214Y-16833786D01*
X11356500Y-16819500D01*
X11385071Y-16805214D01*
X11613643Y-17076643D02*
X11627928Y-17090929D01*
X11613643Y-17105214D01*
X11599357Y-17090929D01*
X11613643Y-17076643D01*
X11613643Y-17105214D01*
X11885071Y-16905214D02*
X11885071Y-17105214D01*
X11813643Y-16790929D02*
X11742214Y-17005214D01*
X11927928Y-17005214D01*
X12099357Y-16805214D02*
X12127928Y-16805214D01*
X12156500Y-16819500D01*
X12170786Y-16833786D01*
X12185071Y-16862357D01*
X12199357Y-16919500D01*
X12199357Y-16990929D01*
X12185071Y-17048072D01*
X12170786Y-17076643D01*
X12156500Y-17090929D01*
X12127928Y-17105214D01*
X12099357Y-17105214D01*
X12070786Y-17090929D01*
X12056500Y-17076643D01*
X12042214Y-17048072D01*
X12027928Y-16990929D01*
X12027928Y-16919500D01*
X12042214Y-16862357D01*
X12056500Y-16833786D01*
X12070786Y-16819500D01*
X12099357Y-16805214D01*
X12385071Y-16805214D02*
X12413643Y-16805214D01*
X12442214Y-16819500D01*
X12456500Y-16833786D01*
X12470786Y-16862357D01*
X12485071Y-16919500D01*
X12485071Y-16990929D01*
X12470786Y-17048072D01*
X12456500Y-17076643D01*
X12442214Y-17090929D01*
X12413643Y-17105214D01*
X12385071Y-17105214D01*
X12356500Y-17090929D01*
X12342214Y-17076643D01*
X12327928Y-17048072D01*
X12313643Y-16990929D01*
X12313643Y-16919500D01*
X12327928Y-16862357D01*
X12342214Y-16833786D01*
X12356500Y-16819500D01*
X12385071Y-16805214D01*
X12613643Y-17105214D02*
X12613643Y-16905214D01*
X12613643Y-16933786D02*
X12627928Y-16919500D01*
X12656500Y-16905214D01*
X12699357Y-16905214D01*
X12727928Y-16919500D01*
X12742214Y-16948072D01*
X12742214Y-17105214D01*
X12742214Y-16948072D02*
X12756500Y-16919500D01*
X12785071Y-16905214D01*
X12827928Y-16905214D01*
X12856500Y-16919500D01*
X12870786Y-16948072D01*
X12870786Y-17105214D01*
X13013643Y-17105214D02*
X13013643Y-16905214D01*
X13013643Y-16933786D02*
X13027928Y-16919500D01*
X13056500Y-16905214D01*
X13099357Y-16905214D01*
X13127928Y-16919500D01*
X13142214Y-16948072D01*
X13142214Y-17105214D01*
X13142214Y-16948072D02*
X13156500Y-16919500D01*
X13185071Y-16905214D01*
X13227928Y-16905214D01*
X13256500Y-16919500D01*
X13270786Y-16948072D01*
X13270786Y-17105214D01*
X13856500Y-16790929D02*
X13599357Y-17176643D01*
X14242214Y-16805214D02*
X14270786Y-16805214D01*
X14299357Y-16819500D01*
X14313643Y-16833786D01*
X14327928Y-16862357D01*
X14342214Y-16919500D01*
X14342214Y-16990929D01*
X14327928Y-17048072D01*
X14313643Y-17076643D01*
X14299357Y-17090929D01*
X14270786Y-17105214D01*
X14242214Y-17105214D01*
X14213643Y-17090929D01*
X14199357Y-17076643D01*
X14185071Y-17048072D01*
X14170786Y-16990929D01*
X14170786Y-16919500D01*
X14185071Y-16862357D01*
X14199357Y-16833786D01*
X14213643Y-16819500D01*
X14242214Y-16805214D01*
X14470786Y-17076643D02*
X14485071Y-17090929D01*
X14470786Y-17105214D01*
X14456500Y-17090929D01*
X14470786Y-17076643D01*
X14470786Y-17105214D01*
X14670786Y-16805214D02*
X14699357Y-16805214D01*
X14727928Y-16819500D01*
X14742214Y-16833786D01*
X14756500Y-16862357D01*
X14770786Y-16919500D01*
X14770786Y-16990929D01*
X14756500Y-17048072D01*
X14742214Y-17076643D01*
X14727928Y-17090929D01*
X14699357Y-17105214D01*
X14670786Y-17105214D01*
X14642214Y-17090929D01*
X14627928Y-17076643D01*
X14613643Y-17048072D01*
X14599357Y-16990929D01*
X14599357Y-16919500D01*
X14613643Y-16862357D01*
X14627928Y-16833786D01*
X14642214Y-16819500D01*
X14670786Y-16805214D01*
X15056500Y-17105214D02*
X14885071Y-17105214D01*
X14970786Y-17105214D02*
X14970786Y-16805214D01*
X14942214Y-16848072D01*
X14913643Y-16876643D01*
X14885071Y-16890929D01*
X15327928Y-16805214D02*
X15185071Y-16805214D01*
X15170786Y-16948072D01*
X15185071Y-16933786D01*
X15213643Y-16919500D01*
X15285071Y-16919500D01*
X15313643Y-16933786D01*
X15327928Y-16948072D01*
X15342214Y-16976643D01*
X15342214Y-17048072D01*
X15327928Y-17076643D01*
X15313643Y-17090929D01*
X15285071Y-17105214D01*
X15213643Y-17105214D01*
X15185071Y-17090929D01*
X15170786Y-17076643D01*
X15442214Y-16805214D02*
X15642214Y-16805214D01*
X15513643Y-17105214D01*
X15742214Y-16805214D02*
X15742214Y-16862357D01*
X15856500Y-16805214D02*
X15856500Y-16862357D01*
X16299357Y-17219500D02*
X16285071Y-17205214D01*
X16256500Y-17162357D01*
X16242214Y-17133786D01*
X16227928Y-17090929D01*
X16213643Y-17019500D01*
X16213643Y-16962357D01*
X16227928Y-16890929D01*
X16242214Y-16848072D01*
X16256500Y-16819500D01*
X16285071Y-16776643D01*
X16299357Y-16762357D01*
X16570786Y-17105214D02*
X16399357Y-17105214D01*
X16485071Y-17105214D02*
X16485071Y-16805214D01*
X16456500Y-16848072D01*
X16427928Y-16876643D01*
X16399357Y-16890929D01*
X16927928Y-17105214D02*
X16927928Y-16805214D01*
X17056500Y-17105214D02*
X17056500Y-16948072D01*
X17042214Y-16919500D01*
X17013643Y-16905214D01*
X16970786Y-16905214D01*
X16942214Y-16919500D01*
X16927928Y-16933786D01*
X17242214Y-17105214D02*
X17213643Y-17090929D01*
X17199357Y-17076643D01*
X17185071Y-17048072D01*
X17185071Y-16962357D01*
X17199357Y-16933786D01*
X17213643Y-16919500D01*
X17242214Y-16905214D01*
X17285071Y-16905214D01*
X17313643Y-16919500D01*
X17327928Y-16933786D01*
X17342214Y-16962357D01*
X17342214Y-17048072D01*
X17327928Y-17076643D01*
X17313643Y-17090929D01*
X17285071Y-17105214D01*
X17242214Y-17105214D01*
X17513643Y-17105214D02*
X17485071Y-17090929D01*
X17470786Y-17062357D01*
X17470786Y-16805214D01*
X17742214Y-17090929D02*
X17713643Y-17105214D01*
X17656500Y-17105214D01*
X17627928Y-17090929D01*
X17613643Y-17062357D01*
X17613643Y-16948072D01*
X17627928Y-16919500D01*
X17656500Y-16905214D01*
X17713643Y-16905214D01*
X17742214Y-16919500D01*
X17756500Y-16948072D01*
X17756500Y-16976643D01*
X17613643Y-17005214D01*
X17856500Y-17219500D02*
X17870786Y-17205214D01*
X17899357Y-17162357D01*
X17913643Y-17133786D01*
X17927928Y-17090929D01*
X17942214Y-17019500D01*
X17942214Y-16962357D01*
X17927928Y-16890929D01*
X17913643Y-16848072D01*
X17899357Y-16819500D01*
X17870786Y-16776643D01*
X17856500Y-16762357D01*
X11041500Y-17365500D02*
G75*
G03*
X11041500Y-17365500I-40000J0D01*
G01*
X11385071Y-17201214D02*
X11413643Y-17201214D01*
X11442214Y-17215500D01*
X11456500Y-17229786D01*
X11470786Y-17258357D01*
X11485071Y-17315500D01*
X11485071Y-17386929D01*
X11470786Y-17444072D01*
X11456500Y-17472643D01*
X11442214Y-17486929D01*
X11413643Y-17501214D01*
X11385071Y-17501214D01*
X11356500Y-17486929D01*
X11342214Y-17472643D01*
X11327928Y-17444072D01*
X11313643Y-17386929D01*
X11313643Y-17315500D01*
X11327928Y-17258357D01*
X11342214Y-17229786D01*
X11356500Y-17215500D01*
X11385071Y-17201214D01*
X11613643Y-17472643D02*
X11627928Y-17486929D01*
X11613643Y-17501214D01*
X11599357Y-17486929D01*
X11613643Y-17472643D01*
X11613643Y-17501214D01*
X11799357Y-17329786D02*
X11770786Y-17315500D01*
X11756500Y-17301214D01*
X11742214Y-17272643D01*
X11742214Y-17258357D01*
X11756500Y-17229786D01*
X11770786Y-17215500D01*
X11799357Y-17201214D01*
X11856500Y-17201214D01*
X11885071Y-17215500D01*
X11899357Y-17229786D01*
X11913643Y-17258357D01*
X11913643Y-17272643D01*
X11899357Y-17301214D01*
X11885071Y-17315500D01*
X11856500Y-17329786D01*
X11799357Y-17329786D01*
X11770786Y-17344072D01*
X11756500Y-17358357D01*
X11742214Y-17386929D01*
X11742214Y-17444072D01*
X11756500Y-17472643D01*
X11770786Y-17486929D01*
X11799357Y-17501214D01*
X11856500Y-17501214D01*
X11885071Y-17486929D01*
X11899357Y-17472643D01*
X11913643Y-17444072D01*
X11913643Y-17386929D01*
X11899357Y-17358357D01*
X11885071Y-17344072D01*
X11856500Y-17329786D01*
X12099357Y-17201214D02*
X12127928Y-17201214D01*
X12156500Y-17215500D01*
X12170786Y-17229786D01*
X12185071Y-17258357D01*
X12199357Y-17315500D01*
X12199357Y-17386929D01*
X12185071Y-17444072D01*
X12170786Y-17472643D01*
X12156500Y-17486929D01*
X12127928Y-17501214D01*
X12099357Y-17501214D01*
X12070786Y-17486929D01*
X12056500Y-17472643D01*
X12042214Y-17444072D01*
X12027928Y-17386929D01*
X12027928Y-17315500D01*
X12042214Y-17258357D01*
X12056500Y-17229786D01*
X12070786Y-17215500D01*
X12099357Y-17201214D01*
X12385071Y-17201214D02*
X12413643Y-17201214D01*
X12442214Y-17215500D01*
X12456500Y-17229786D01*
X12470786Y-17258357D01*
X12485071Y-17315500D01*
X12485071Y-17386929D01*
X12470786Y-17444072D01*
X12456500Y-17472643D01*
X12442214Y-17486929D01*
X12413643Y-17501214D01*
X12385071Y-17501214D01*
X12356500Y-17486929D01*
X12342214Y-17472643D01*
X12327928Y-17444072D01*
X12313643Y-17386929D01*
X12313643Y-17315500D01*
X12327928Y-17258357D01*
X12342214Y-17229786D01*
X12356500Y-17215500D01*
X12385071Y-17201214D01*
X12613643Y-17501214D02*
X12613643Y-17301214D01*
X12613643Y-17329786D02*
X12627928Y-17315500D01*
X12656500Y-17301214D01*
X12699357Y-17301214D01*
X12727928Y-17315500D01*
X12742214Y-17344072D01*
X12742214Y-17501214D01*
X12742214Y-17344072D02*
X12756500Y-17315500D01*
X12785071Y-17301214D01*
X12827928Y-17301214D01*
X12856500Y-17315500D01*
X12870786Y-17344072D01*
X12870786Y-17501214D01*
X13013643Y-17501214D02*
X13013643Y-17301214D01*
X13013643Y-17329786D02*
X13027928Y-17315500D01*
X13056500Y-17301214D01*
X13099357Y-17301214D01*
X13127928Y-17315500D01*
X13142214Y-17344072D01*
X13142214Y-17501214D01*
X13142214Y-17344072D02*
X13156500Y-17315500D01*
X13185071Y-17301214D01*
X13227928Y-17301214D01*
X13256500Y-17315500D01*
X13270786Y-17344072D01*
X13270786Y-17501214D01*
X13856500Y-17186929D02*
X13599357Y-17572643D01*
X14242214Y-17201214D02*
X14270786Y-17201214D01*
X14299357Y-17215500D01*
X14313643Y-17229786D01*
X14327928Y-17258357D01*
X14342214Y-17315500D01*
X14342214Y-17386929D01*
X14327928Y-17444072D01*
X14313643Y-17472643D01*
X14299357Y-17486929D01*
X14270786Y-17501214D01*
X14242214Y-17501214D01*
X14213643Y-17486929D01*
X14199357Y-17472643D01*
X14185071Y-17444072D01*
X14170786Y-17386929D01*
X14170786Y-17315500D01*
X14185071Y-17258357D01*
X14199357Y-17229786D01*
X14213643Y-17215500D01*
X14242214Y-17201214D01*
X14470786Y-17472643D02*
X14485071Y-17486929D01*
X14470786Y-17501214D01*
X14456500Y-17486929D01*
X14470786Y-17472643D01*
X14470786Y-17501214D01*
X14670786Y-17201214D02*
X14699357Y-17201214D01*
X14727928Y-17215500D01*
X14742214Y-17229786D01*
X14756500Y-17258357D01*
X14770786Y-17315500D01*
X14770786Y-17386929D01*
X14756500Y-17444072D01*
X14742214Y-17472643D01*
X14727928Y-17486929D01*
X14699357Y-17501214D01*
X14670786Y-17501214D01*
X14642214Y-17486929D01*
X14627928Y-17472643D01*
X14613643Y-17444072D01*
X14599357Y-17386929D01*
X14599357Y-17315500D01*
X14613643Y-17258357D01*
X14627928Y-17229786D01*
X14642214Y-17215500D01*
X14670786Y-17201214D01*
X14870786Y-17201214D02*
X15056500Y-17201214D01*
X14956500Y-17315500D01*
X14999357Y-17315500D01*
X15027928Y-17329786D01*
X15042214Y-17344072D01*
X15056500Y-17372643D01*
X15056500Y-17444072D01*
X15042214Y-17472643D01*
X15027928Y-17486929D01*
X14999357Y-17501214D01*
X14913643Y-17501214D01*
X14885071Y-17486929D01*
X14870786Y-17472643D01*
X15342214Y-17501214D02*
X15170786Y-17501214D01*
X15256500Y-17501214D02*
X15256500Y-17201214D01*
X15227928Y-17244072D01*
X15199357Y-17272643D01*
X15170786Y-17286929D01*
X15613643Y-17201214D02*
X15470786Y-17201214D01*
X15456500Y-17344072D01*
X15470786Y-17329786D01*
X15499357Y-17315500D01*
X15570786Y-17315500D01*
X15599357Y-17329786D01*
X15613643Y-17344072D01*
X15627928Y-17372643D01*
X15627928Y-17444072D01*
X15613643Y-17472643D01*
X15599357Y-17486929D01*
X15570786Y-17501214D01*
X15499357Y-17501214D01*
X15470786Y-17486929D01*
X15456500Y-17472643D01*
X15742214Y-17201214D02*
X15742214Y-17258357D01*
X15856500Y-17201214D02*
X15856500Y-17258357D01*
X16299357Y-17615500D02*
X16285071Y-17601214D01*
X16256500Y-17558357D01*
X16242214Y-17529786D01*
X16227928Y-17486929D01*
X16213643Y-17415500D01*
X16213643Y-17358357D01*
X16227928Y-17286929D01*
X16242214Y-17244072D01*
X16256500Y-17215500D01*
X16285071Y-17172643D01*
X16299357Y-17158357D01*
X16399357Y-17229786D02*
X16413643Y-17215500D01*
X16442214Y-17201214D01*
X16513643Y-17201214D01*
X16542214Y-17215500D01*
X16556500Y-17229786D01*
X16570786Y-17258357D01*
X16570786Y-17286929D01*
X16556500Y-17329786D01*
X16385071Y-17501214D01*
X16570786Y-17501214D01*
X16856500Y-17501214D02*
X16685071Y-17501214D01*
X16770786Y-17501214D02*
X16770786Y-17201214D01*
X16742214Y-17244072D01*
X16713643Y-17272643D01*
X16685071Y-17286929D01*
X16956500Y-17201214D02*
X17142214Y-17201214D01*
X17042214Y-17315500D01*
X17085071Y-17315500D01*
X17113643Y-17329786D01*
X17127928Y-17344072D01*
X17142214Y-17372643D01*
X17142214Y-17444072D01*
X17127928Y-17472643D01*
X17113643Y-17486929D01*
X17085071Y-17501214D01*
X16999357Y-17501214D01*
X16970786Y-17486929D01*
X16956500Y-17472643D01*
X17499357Y-17501214D02*
X17499357Y-17201214D01*
X17627928Y-17501214D02*
X17627928Y-17344072D01*
X17613643Y-17315500D01*
X17585071Y-17301214D01*
X17542214Y-17301214D01*
X17513643Y-17315500D01*
X17499357Y-17329786D01*
X17813643Y-17501214D02*
X17785071Y-17486929D01*
X17770786Y-17472643D01*
X17756500Y-17444072D01*
X17756500Y-17358357D01*
X17770786Y-17329786D01*
X17785071Y-17315500D01*
X17813643Y-17301214D01*
X17856500Y-17301214D01*
X17885071Y-17315500D01*
X17899357Y-17329786D01*
X17913643Y-17358357D01*
X17913643Y-17444072D01*
X17899357Y-17472643D01*
X17885071Y-17486929D01*
X17856500Y-17501214D01*
X17813643Y-17501214D01*
X18085071Y-17501214D02*
X18056500Y-17486929D01*
X18042214Y-17458357D01*
X18042214Y-17201214D01*
X18313643Y-17486929D02*
X18285071Y-17501214D01*
X18227928Y-17501214D01*
X18199357Y-17486929D01*
X18185071Y-17458357D01*
X18185071Y-17344072D01*
X18199357Y-17315500D01*
X18227928Y-17301214D01*
X18285071Y-17301214D01*
X18313643Y-17315500D01*
X18327928Y-17344072D01*
X18327928Y-17372643D01*
X18185071Y-17401214D01*
X18442214Y-17486929D02*
X18470786Y-17501214D01*
X18527928Y-17501214D01*
X18556500Y-17486929D01*
X18570786Y-17458357D01*
X18570786Y-17444072D01*
X18556500Y-17415500D01*
X18527928Y-17401214D01*
X18485071Y-17401214D01*
X18456500Y-17386929D01*
X18442214Y-17358357D01*
X18442214Y-17344072D01*
X18456500Y-17315500D01*
X18485071Y-17301214D01*
X18527928Y-17301214D01*
X18556500Y-17315500D01*
X18670786Y-17615500D02*
X18685071Y-17601214D01*
X18713643Y-17558357D01*
X18727928Y-17529786D01*
X18742214Y-17486929D01*
X18756500Y-17415500D01*
X18756500Y-17358357D01*
X18742214Y-17286929D01*
X18727928Y-17244072D01*
X18713643Y-17215500D01*
X18685071Y-17172643D01*
X18670786Y-17158357D01*
X10991500Y-17711500D02*
X10991500Y-17811500D01*
X10941500Y-17761500D02*
X11041500Y-17761500D01*
X11485071Y-17897214D02*
X11313643Y-17897214D01*
X11399357Y-17897214D02*
X11399357Y-17597214D01*
X11370786Y-17640072D01*
X11342214Y-17668643D01*
X11313643Y-17682929D01*
X11613643Y-17868643D02*
X11627928Y-17882929D01*
X11613643Y-17897214D01*
X11599357Y-17882929D01*
X11613643Y-17868643D01*
X11613643Y-17897214D01*
X11813643Y-17597214D02*
X11842214Y-17597214D01*
X11870786Y-17611500D01*
X11885071Y-17625786D01*
X11899357Y-17654357D01*
X11913643Y-17711500D01*
X11913643Y-17782929D01*
X11899357Y-17840072D01*
X11885071Y-17868643D01*
X11870786Y-17882929D01*
X11842214Y-17897214D01*
X11813643Y-17897214D01*
X11785071Y-17882929D01*
X11770786Y-17868643D01*
X11756500Y-17840072D01*
X11742214Y-17782929D01*
X11742214Y-17711500D01*
X11756500Y-17654357D01*
X11770786Y-17625786D01*
X11785071Y-17611500D01*
X11813643Y-17597214D01*
X12099357Y-17597214D02*
X12127928Y-17597214D01*
X12156500Y-17611500D01*
X12170786Y-17625786D01*
X12185071Y-17654357D01*
X12199357Y-17711500D01*
X12199357Y-17782929D01*
X12185071Y-17840072D01*
X12170786Y-17868643D01*
X12156500Y-17882929D01*
X12127928Y-17897214D01*
X12099357Y-17897214D01*
X12070786Y-17882929D01*
X12056500Y-17868643D01*
X12042214Y-17840072D01*
X12027928Y-17782929D01*
X12027928Y-17711500D01*
X12042214Y-17654357D01*
X12056500Y-17625786D01*
X12070786Y-17611500D01*
X12099357Y-17597214D01*
X12385071Y-17597214D02*
X12413643Y-17597214D01*
X12442214Y-17611500D01*
X12456500Y-17625786D01*
X12470786Y-17654357D01*
X12485071Y-17711500D01*
X12485071Y-17782929D01*
X12470786Y-17840072D01*
X12456500Y-17868643D01*
X12442214Y-17882929D01*
X12413643Y-17897214D01*
X12385071Y-17897214D01*
X12356500Y-17882929D01*
X12342214Y-17868643D01*
X12327928Y-17840072D01*
X12313643Y-17782929D01*
X12313643Y-17711500D01*
X12327928Y-17654357D01*
X12342214Y-17625786D01*
X12356500Y-17611500D01*
X12385071Y-17597214D01*
X12613643Y-17897214D02*
X12613643Y-17697214D01*
X12613643Y-17725786D02*
X12627928Y-17711500D01*
X12656500Y-17697214D01*
X12699357Y-17697214D01*
X12727928Y-17711500D01*
X12742214Y-17740072D01*
X12742214Y-17897214D01*
X12742214Y-17740072D02*
X12756500Y-17711500D01*
X12785071Y-17697214D01*
X12827928Y-17697214D01*
X12856500Y-17711500D01*
X12870786Y-17740072D01*
X12870786Y-17897214D01*
X13013643Y-17897214D02*
X13013643Y-17697214D01*
X13013643Y-17725786D02*
X13027928Y-17711500D01*
X13056500Y-17697214D01*
X13099357Y-17697214D01*
X13127928Y-17711500D01*
X13142214Y-17740072D01*
X13142214Y-17897214D01*
X13142214Y-17740072D02*
X13156500Y-17711500D01*
X13185071Y-17697214D01*
X13227928Y-17697214D01*
X13256500Y-17711500D01*
X13270786Y-17740072D01*
X13270786Y-17897214D01*
X13856500Y-17582929D02*
X13599357Y-17968643D01*
X14242214Y-17597214D02*
X14270786Y-17597214D01*
X14299357Y-17611500D01*
X14313643Y-17625786D01*
X14327928Y-17654357D01*
X14342214Y-17711500D01*
X14342214Y-17782929D01*
X14327928Y-17840072D01*
X14313643Y-17868643D01*
X14299357Y-17882929D01*
X14270786Y-17897214D01*
X14242214Y-17897214D01*
X14213643Y-17882929D01*
X14199357Y-17868643D01*
X14185071Y-17840072D01*
X14170786Y-17782929D01*
X14170786Y-17711500D01*
X14185071Y-17654357D01*
X14199357Y-17625786D01*
X14213643Y-17611500D01*
X14242214Y-17597214D01*
X14470786Y-17868643D02*
X14485071Y-17882929D01*
X14470786Y-17897214D01*
X14456500Y-17882929D01*
X14470786Y-17868643D01*
X14470786Y-17897214D01*
X14670786Y-17597214D02*
X14699357Y-17597214D01*
X14727928Y-17611500D01*
X14742214Y-17625786D01*
X14756500Y-17654357D01*
X14770786Y-17711500D01*
X14770786Y-17782929D01*
X14756500Y-17840072D01*
X14742214Y-17868643D01*
X14727928Y-17882929D01*
X14699357Y-17897214D01*
X14670786Y-17897214D01*
X14642214Y-17882929D01*
X14627928Y-17868643D01*
X14613643Y-17840072D01*
X14599357Y-17782929D01*
X14599357Y-17711500D01*
X14613643Y-17654357D01*
X14627928Y-17625786D01*
X14642214Y-17611500D01*
X14670786Y-17597214D01*
X14870786Y-17597214D02*
X15056500Y-17597214D01*
X14956500Y-17711500D01*
X14999357Y-17711500D01*
X15027928Y-17725786D01*
X15042214Y-17740072D01*
X15056500Y-17768643D01*
X15056500Y-17840072D01*
X15042214Y-17868643D01*
X15027928Y-17882929D01*
X14999357Y-17897214D01*
X14913643Y-17897214D01*
X14885071Y-17882929D01*
X14870786Y-17868643D01*
X15199357Y-17897214D02*
X15256500Y-17897214D01*
X15285071Y-17882929D01*
X15299357Y-17868643D01*
X15327928Y-17825786D01*
X15342214Y-17768643D01*
X15342214Y-17654357D01*
X15327928Y-17625786D01*
X15313643Y-17611500D01*
X15285071Y-17597214D01*
X15227928Y-17597214D01*
X15199357Y-17611500D01*
X15185071Y-17625786D01*
X15170786Y-17654357D01*
X15170786Y-17725786D01*
X15185071Y-17754357D01*
X15199357Y-17768643D01*
X15227928Y-17782929D01*
X15285071Y-17782929D01*
X15313643Y-17768643D01*
X15327928Y-17754357D01*
X15342214Y-17725786D01*
X15599357Y-17697214D02*
X15599357Y-17897214D01*
X15527928Y-17582929D02*
X15456500Y-17797214D01*
X15642214Y-17797214D01*
X15742214Y-17597214D02*
X15742214Y-17654357D01*
X15856500Y-17597214D02*
X15856500Y-17654357D01*
X16299357Y-18011500D02*
X16285071Y-17997214D01*
X16256500Y-17954357D01*
X16242214Y-17925786D01*
X16227928Y-17882929D01*
X16213643Y-17811500D01*
X16213643Y-17754357D01*
X16227928Y-17682929D01*
X16242214Y-17640072D01*
X16256500Y-17611500D01*
X16285071Y-17568643D01*
X16299357Y-17554357D01*
X16385071Y-17597214D02*
X16570786Y-17597214D01*
X16470786Y-17711500D01*
X16513643Y-17711500D01*
X16542214Y-17725786D01*
X16556500Y-17740072D01*
X16570786Y-17768643D01*
X16570786Y-17840072D01*
X16556500Y-17868643D01*
X16542214Y-17882929D01*
X16513643Y-17897214D01*
X16427928Y-17897214D01*
X16399357Y-17882929D01*
X16385071Y-17868643D01*
X16756500Y-17597214D02*
X16785071Y-17597214D01*
X16813643Y-17611500D01*
X16827928Y-17625786D01*
X16842214Y-17654357D01*
X16856500Y-17711500D01*
X16856500Y-17782929D01*
X16842214Y-17840072D01*
X16827928Y-17868643D01*
X16813643Y-17882929D01*
X16785071Y-17897214D01*
X16756500Y-17897214D01*
X16727928Y-17882929D01*
X16713643Y-17868643D01*
X16699357Y-17840072D01*
X16685071Y-17782929D01*
X16685071Y-17711500D01*
X16699357Y-17654357D01*
X16713643Y-17625786D01*
X16727928Y-17611500D01*
X16756500Y-17597214D01*
X17213643Y-17897214D02*
X17213643Y-17597214D01*
X17342214Y-17897214D02*
X17342214Y-17740072D01*
X17327928Y-17711500D01*
X17299357Y-17697214D01*
X17256500Y-17697214D01*
X17227928Y-17711500D01*
X17213643Y-17725786D01*
X17527928Y-17897214D02*
X17499357Y-17882929D01*
X17485071Y-17868643D01*
X17470786Y-17840072D01*
X17470786Y-17754357D01*
X17485071Y-17725786D01*
X17499357Y-17711500D01*
X17527928Y-17697214D01*
X17570786Y-17697214D01*
X17599357Y-17711500D01*
X17613643Y-17725786D01*
X17627928Y-17754357D01*
X17627928Y-17840072D01*
X17613643Y-17868643D01*
X17599357Y-17882929D01*
X17570786Y-17897214D01*
X17527928Y-17897214D01*
X17799357Y-17897214D02*
X17770786Y-17882929D01*
X17756500Y-17854357D01*
X17756500Y-17597214D01*
X18027928Y-17882929D02*
X17999357Y-17897214D01*
X17942214Y-17897214D01*
X17913643Y-17882929D01*
X17899357Y-17854357D01*
X17899357Y-17740072D01*
X17913643Y-17711500D01*
X17942214Y-17697214D01*
X17999357Y-17697214D01*
X18027928Y-17711500D01*
X18042214Y-17740072D01*
X18042214Y-17768643D01*
X17899357Y-17797214D01*
X18156500Y-17882929D02*
X18185071Y-17897214D01*
X18242214Y-17897214D01*
X18270786Y-17882929D01*
X18285071Y-17854357D01*
X18285071Y-17840072D01*
X18270786Y-17811500D01*
X18242214Y-17797214D01*
X18199357Y-17797214D01*
X18170786Y-17782929D01*
X18156500Y-17754357D01*
X18156500Y-17740072D01*
X18170786Y-17711500D01*
X18199357Y-17697214D01*
X18242214Y-17697214D01*
X18270786Y-17711500D01*
X18385071Y-18011500D02*
X18399357Y-17997214D01*
X18427928Y-17954357D01*
X18442214Y-17925786D01*
X18456500Y-17882929D01*
X18470786Y-17811500D01*
X18470786Y-17754357D01*
X18456500Y-17682929D01*
X18442214Y-17640072D01*
X18427928Y-17611500D01*
X18399357Y-17568643D01*
X18385071Y-17554357D01*
X11026621Y-18193422D02*
X11026621Y-18121579D01*
X10954779Y-18121579D01*
X10954779Y-18193422D01*
X11026621Y-18193422D01*
X11485071Y-18293214D02*
X11313643Y-18293214D01*
X11399357Y-18293214D02*
X11399357Y-17993214D01*
X11370786Y-18036072D01*
X11342214Y-18064643D01*
X11313643Y-18078929D01*
X11613643Y-18264643D02*
X11627928Y-18278929D01*
X11613643Y-18293214D01*
X11599357Y-18278929D01*
X11613643Y-18264643D01*
X11613643Y-18293214D01*
X11813643Y-17993214D02*
X11842214Y-17993214D01*
X11870786Y-18007500D01*
X11885071Y-18021786D01*
X11899357Y-18050357D01*
X11913643Y-18107500D01*
X11913643Y-18178929D01*
X11899357Y-18236072D01*
X11885071Y-18264643D01*
X11870786Y-18278929D01*
X11842214Y-18293214D01*
X11813643Y-18293214D01*
X11785071Y-18278929D01*
X11770786Y-18264643D01*
X11756500Y-18236072D01*
X11742214Y-18178929D01*
X11742214Y-18107500D01*
X11756500Y-18050357D01*
X11770786Y-18021786D01*
X11785071Y-18007500D01*
X11813643Y-17993214D01*
X12199357Y-18293214D02*
X12027928Y-18293214D01*
X12113643Y-18293214D02*
X12113643Y-17993214D01*
X12085071Y-18036072D01*
X12056500Y-18064643D01*
X12027928Y-18078929D01*
X12456500Y-17993214D02*
X12399357Y-17993214D01*
X12370786Y-18007500D01*
X12356500Y-18021786D01*
X12327928Y-18064643D01*
X12313643Y-18121786D01*
X12313643Y-18236072D01*
X12327928Y-18264643D01*
X12342214Y-18278929D01*
X12370786Y-18293214D01*
X12427928Y-18293214D01*
X12456500Y-18278929D01*
X12470786Y-18264643D01*
X12485071Y-18236072D01*
X12485071Y-18164643D01*
X12470786Y-18136072D01*
X12456500Y-18121786D01*
X12427928Y-18107500D01*
X12370786Y-18107500D01*
X12342214Y-18121786D01*
X12327928Y-18136072D01*
X12313643Y-18164643D01*
X12613643Y-18293214D02*
X12613643Y-18093214D01*
X12613643Y-18121786D02*
X12627928Y-18107500D01*
X12656500Y-18093214D01*
X12699357Y-18093214D01*
X12727928Y-18107500D01*
X12742214Y-18136072D01*
X12742214Y-18293214D01*
X12742214Y-18136072D02*
X12756500Y-18107500D01*
X12785071Y-18093214D01*
X12827928Y-18093214D01*
X12856500Y-18107500D01*
X12870786Y-18136072D01*
X12870786Y-18293214D01*
X13013643Y-18293214D02*
X13013643Y-18093214D01*
X13013643Y-18121786D02*
X13027928Y-18107500D01*
X13056500Y-18093214D01*
X13099357Y-18093214D01*
X13127928Y-18107500D01*
X13142214Y-18136072D01*
X13142214Y-18293214D01*
X13142214Y-18136072D02*
X13156500Y-18107500D01*
X13185071Y-18093214D01*
X13227928Y-18093214D01*
X13256500Y-18107500D01*
X13270786Y-18136072D01*
X13270786Y-18293214D01*
X13856500Y-17978929D02*
X13599357Y-18364643D01*
X14242214Y-17993214D02*
X14270786Y-17993214D01*
X14299357Y-18007500D01*
X14313643Y-18021786D01*
X14327928Y-18050357D01*
X14342214Y-18107500D01*
X14342214Y-18178929D01*
X14327928Y-18236072D01*
X14313643Y-18264643D01*
X14299357Y-18278929D01*
X14270786Y-18293214D01*
X14242214Y-18293214D01*
X14213643Y-18278929D01*
X14199357Y-18264643D01*
X14185071Y-18236072D01*
X14170786Y-18178929D01*
X14170786Y-18107500D01*
X14185071Y-18050357D01*
X14199357Y-18021786D01*
X14213643Y-18007500D01*
X14242214Y-17993214D01*
X14470786Y-18264643D02*
X14485071Y-18278929D01*
X14470786Y-18293214D01*
X14456500Y-18278929D01*
X14470786Y-18264643D01*
X14470786Y-18293214D01*
X14670786Y-17993214D02*
X14699357Y-17993214D01*
X14727928Y-18007500D01*
X14742214Y-18021786D01*
X14756500Y-18050357D01*
X14770786Y-18107500D01*
X14770786Y-18178929D01*
X14756500Y-18236072D01*
X14742214Y-18264643D01*
X14727928Y-18278929D01*
X14699357Y-18293214D01*
X14670786Y-18293214D01*
X14642214Y-18278929D01*
X14627928Y-18264643D01*
X14613643Y-18236072D01*
X14599357Y-18178929D01*
X14599357Y-18107500D01*
X14613643Y-18050357D01*
X14627928Y-18021786D01*
X14642214Y-18007500D01*
X14670786Y-17993214D01*
X15027928Y-18093214D02*
X15027928Y-18293214D01*
X14956500Y-17978929D02*
X14885071Y-18193214D01*
X15070786Y-18193214D01*
X15242214Y-17993214D02*
X15270786Y-17993214D01*
X15299357Y-18007500D01*
X15313643Y-18021786D01*
X15327928Y-18050357D01*
X15342214Y-18107500D01*
X15342214Y-18178929D01*
X15327928Y-18236072D01*
X15313643Y-18264643D01*
X15299357Y-18278929D01*
X15270786Y-18293214D01*
X15242214Y-18293214D01*
X15213643Y-18278929D01*
X15199357Y-18264643D01*
X15185071Y-18236072D01*
X15170786Y-18178929D01*
X15170786Y-18107500D01*
X15185071Y-18050357D01*
X15199357Y-18021786D01*
X15213643Y-18007500D01*
X15242214Y-17993214D01*
X15527928Y-17993214D02*
X15556500Y-17993214D01*
X15585071Y-18007500D01*
X15599357Y-18021786D01*
X15613643Y-18050357D01*
X15627928Y-18107500D01*
X15627928Y-18178929D01*
X15613643Y-18236072D01*
X15599357Y-18264643D01*
X15585071Y-18278929D01*
X15556500Y-18293214D01*
X15527928Y-18293214D01*
X15499357Y-18278929D01*
X15485071Y-18264643D01*
X15470786Y-18236072D01*
X15456500Y-18178929D01*
X15456500Y-18107500D01*
X15470786Y-18050357D01*
X15485071Y-18021786D01*
X15499357Y-18007500D01*
X15527928Y-17993214D01*
X15742214Y-17993214D02*
X15742214Y-18050357D01*
X15856500Y-17993214D02*
X15856500Y-18050357D01*
X16299357Y-18407500D02*
X16285071Y-18393214D01*
X16256500Y-18350357D01*
X16242214Y-18321786D01*
X16227928Y-18278929D01*
X16213643Y-18207500D01*
X16213643Y-18150357D01*
X16227928Y-18078929D01*
X16242214Y-18036072D01*
X16256500Y-18007500D01*
X16285071Y-17964643D01*
X16299357Y-17950357D01*
X16570786Y-18293214D02*
X16399357Y-18293214D01*
X16485071Y-18293214D02*
X16485071Y-17993214D01*
X16456500Y-18036072D01*
X16427928Y-18064643D01*
X16399357Y-18078929D01*
X16685071Y-18021786D02*
X16699357Y-18007500D01*
X16727928Y-17993214D01*
X16799357Y-17993214D01*
X16827928Y-18007500D01*
X16842214Y-18021786D01*
X16856500Y-18050357D01*
X16856500Y-18078929D01*
X16842214Y-18121786D01*
X16670786Y-18293214D01*
X16856500Y-18293214D01*
X17042214Y-17993214D02*
X17070786Y-17993214D01*
X17099357Y-18007500D01*
X17113643Y-18021786D01*
X17127928Y-18050357D01*
X17142214Y-18107500D01*
X17142214Y-18178929D01*
X17127928Y-18236072D01*
X17113643Y-18264643D01*
X17099357Y-18278929D01*
X17070786Y-18293214D01*
X17042214Y-18293214D01*
X17013643Y-18278929D01*
X16999357Y-18264643D01*
X16985071Y-18236072D01*
X16970786Y-18178929D01*
X16970786Y-18107500D01*
X16985071Y-18050357D01*
X16999357Y-18021786D01*
X17013643Y-18007500D01*
X17042214Y-17993214D01*
X17499357Y-18293214D02*
X17499357Y-17993214D01*
X17627928Y-18293214D02*
X17627928Y-18136072D01*
X17613643Y-18107500D01*
X17585071Y-18093214D01*
X17542214Y-18093214D01*
X17513643Y-18107500D01*
X17499357Y-18121786D01*
X17813643Y-18293214D02*
X17785071Y-18278929D01*
X17770786Y-18264643D01*
X17756500Y-18236072D01*
X17756500Y-18150357D01*
X17770786Y-18121786D01*
X17785071Y-18107500D01*
X17813643Y-18093214D01*
X17856500Y-18093214D01*
X17885071Y-18107500D01*
X17899357Y-18121786D01*
X17913643Y-18150357D01*
X17913643Y-18236072D01*
X17899357Y-18264643D01*
X17885071Y-18278929D01*
X17856500Y-18293214D01*
X17813643Y-18293214D01*
X18085071Y-18293214D02*
X18056500Y-18278929D01*
X18042214Y-18250357D01*
X18042214Y-17993214D01*
X18313643Y-18278929D02*
X18285071Y-18293214D01*
X18227928Y-18293214D01*
X18199357Y-18278929D01*
X18185071Y-18250357D01*
X18185071Y-18136072D01*
X18199357Y-18107500D01*
X18227928Y-18093214D01*
X18285071Y-18093214D01*
X18313643Y-18107500D01*
X18327928Y-18136072D01*
X18327928Y-18164643D01*
X18185071Y-18193214D01*
X18442214Y-18278929D02*
X18470786Y-18293214D01*
X18527928Y-18293214D01*
X18556500Y-18278929D01*
X18570786Y-18250357D01*
X18570786Y-18236072D01*
X18556500Y-18207500D01*
X18527928Y-18193214D01*
X18485071Y-18193214D01*
X18456500Y-18178929D01*
X18442214Y-18150357D01*
X18442214Y-18136072D01*
X18456500Y-18107500D01*
X18485071Y-18093214D01*
X18527928Y-18093214D01*
X18556500Y-18107500D01*
X18670786Y-18407500D02*
X18685071Y-18393214D01*
X18713643Y-18350357D01*
X18727928Y-18321786D01*
X18742214Y-18278929D01*
X18756500Y-18207500D01*
X18756500Y-18150357D01*
X18742214Y-18078929D01*
X18727928Y-18036072D01*
X18713643Y-18007500D01*
X18685071Y-17964643D01*
X18670786Y-17950357D01*
X10986500Y-18608500D02*
X11041500Y-18553500D01*
X10986500Y-18498500D01*
X10931500Y-18553500D01*
X10986500Y-18608500D01*
X11485071Y-18689214D02*
X11313643Y-18689214D01*
X11399357Y-18689214D02*
X11399357Y-18389214D01*
X11370786Y-18432072D01*
X11342214Y-18460643D01*
X11313643Y-18474929D01*
X11613643Y-18660643D02*
X11627928Y-18674929D01*
X11613643Y-18689214D01*
X11599357Y-18674929D01*
X11613643Y-18660643D01*
X11613643Y-18689214D01*
X11913643Y-18689214D02*
X11742214Y-18689214D01*
X11827928Y-18689214D02*
X11827928Y-18389214D01*
X11799357Y-18432072D01*
X11770786Y-18460643D01*
X11742214Y-18474929D01*
X12099357Y-18389214D02*
X12127928Y-18389214D01*
X12156500Y-18403500D01*
X12170786Y-18417786D01*
X12185071Y-18446357D01*
X12199357Y-18503500D01*
X12199357Y-18574929D01*
X12185071Y-18632072D01*
X12170786Y-18660643D01*
X12156500Y-18674929D01*
X12127928Y-18689214D01*
X12099357Y-18689214D01*
X12070786Y-18674929D01*
X12056500Y-18660643D01*
X12042214Y-18632072D01*
X12027928Y-18574929D01*
X12027928Y-18503500D01*
X12042214Y-18446357D01*
X12056500Y-18417786D01*
X12070786Y-18403500D01*
X12099357Y-18389214D01*
X12385071Y-18389214D02*
X12413643Y-18389214D01*
X12442214Y-18403500D01*
X12456500Y-18417786D01*
X12470786Y-18446357D01*
X12485071Y-18503500D01*
X12485071Y-18574929D01*
X12470786Y-18632072D01*
X12456500Y-18660643D01*
X12442214Y-18674929D01*
X12413643Y-18689214D01*
X12385071Y-18689214D01*
X12356500Y-18674929D01*
X12342214Y-18660643D01*
X12327928Y-18632072D01*
X12313643Y-18574929D01*
X12313643Y-18503500D01*
X12327928Y-18446357D01*
X12342214Y-18417786D01*
X12356500Y-18403500D01*
X12385071Y-18389214D01*
X12613643Y-18689214D02*
X12613643Y-18489214D01*
X12613643Y-18517786D02*
X12627928Y-18503500D01*
X12656500Y-18489214D01*
X12699357Y-18489214D01*
X12727928Y-18503500D01*
X12742214Y-18532072D01*
X12742214Y-18689214D01*
X12742214Y-18532072D02*
X12756500Y-18503500D01*
X12785071Y-18489214D01*
X12827928Y-18489214D01*
X12856500Y-18503500D01*
X12870786Y-18532072D01*
X12870786Y-18689214D01*
X13013643Y-18689214D02*
X13013643Y-18489214D01*
X13013643Y-18517786D02*
X13027928Y-18503500D01*
X13056500Y-18489214D01*
X13099357Y-18489214D01*
X13127928Y-18503500D01*
X13142214Y-18532072D01*
X13142214Y-18689214D01*
X13142214Y-18532072D02*
X13156500Y-18503500D01*
X13185071Y-18489214D01*
X13227928Y-18489214D01*
X13256500Y-18503500D01*
X13270786Y-18532072D01*
X13270786Y-18689214D01*
X13856500Y-18374929D02*
X13599357Y-18760643D01*
X14242214Y-18389214D02*
X14270786Y-18389214D01*
X14299357Y-18403500D01*
X14313643Y-18417786D01*
X14327928Y-18446357D01*
X14342214Y-18503500D01*
X14342214Y-18574929D01*
X14327928Y-18632072D01*
X14313643Y-18660643D01*
X14299357Y-18674929D01*
X14270786Y-18689214D01*
X14242214Y-18689214D01*
X14213643Y-18674929D01*
X14199357Y-18660643D01*
X14185071Y-18632072D01*
X14170786Y-18574929D01*
X14170786Y-18503500D01*
X14185071Y-18446357D01*
X14199357Y-18417786D01*
X14213643Y-18403500D01*
X14242214Y-18389214D01*
X14470786Y-18660643D02*
X14485071Y-18674929D01*
X14470786Y-18689214D01*
X14456500Y-18674929D01*
X14470786Y-18660643D01*
X14470786Y-18689214D01*
X14670786Y-18389214D02*
X14699357Y-18389214D01*
X14727928Y-18403500D01*
X14742214Y-18417786D01*
X14756500Y-18446357D01*
X14770786Y-18503500D01*
X14770786Y-18574929D01*
X14756500Y-18632072D01*
X14742214Y-18660643D01*
X14727928Y-18674929D01*
X14699357Y-18689214D01*
X14670786Y-18689214D01*
X14642214Y-18674929D01*
X14627928Y-18660643D01*
X14613643Y-18632072D01*
X14599357Y-18574929D01*
X14599357Y-18503500D01*
X14613643Y-18446357D01*
X14627928Y-18417786D01*
X14642214Y-18403500D01*
X14670786Y-18389214D01*
X15027928Y-18489214D02*
X15027928Y-18689214D01*
X14956500Y-18374929D02*
X14885071Y-18589214D01*
X15070786Y-18589214D01*
X15156500Y-18389214D02*
X15342214Y-18389214D01*
X15242214Y-18503500D01*
X15285071Y-18503500D01*
X15313643Y-18517786D01*
X15327928Y-18532072D01*
X15342214Y-18560643D01*
X15342214Y-18632072D01*
X15327928Y-18660643D01*
X15313643Y-18674929D01*
X15285071Y-18689214D01*
X15199357Y-18689214D01*
X15170786Y-18674929D01*
X15156500Y-18660643D01*
X15442214Y-18389214D02*
X15627928Y-18389214D01*
X15527928Y-18503500D01*
X15570786Y-18503500D01*
X15599357Y-18517786D01*
X15613643Y-18532072D01*
X15627928Y-18560643D01*
X15627928Y-18632072D01*
X15613643Y-18660643D01*
X15599357Y-18674929D01*
X15570786Y-18689214D01*
X15485071Y-18689214D01*
X15456500Y-18674929D01*
X15442214Y-18660643D01*
X15742214Y-18389214D02*
X15742214Y-18446357D01*
X15856500Y-18389214D02*
X15856500Y-18446357D01*
X16299357Y-18803500D02*
X16285071Y-18789214D01*
X16256500Y-18746357D01*
X16242214Y-18717786D01*
X16227928Y-18674929D01*
X16213643Y-18603500D01*
X16213643Y-18546357D01*
X16227928Y-18474929D01*
X16242214Y-18432072D01*
X16256500Y-18403500D01*
X16285071Y-18360643D01*
X16299357Y-18346357D01*
X16542214Y-18389214D02*
X16485071Y-18389214D01*
X16456500Y-18403500D01*
X16442214Y-18417786D01*
X16413643Y-18460643D01*
X16399357Y-18517786D01*
X16399357Y-18632072D01*
X16413643Y-18660643D01*
X16427928Y-18674929D01*
X16456500Y-18689214D01*
X16513643Y-18689214D01*
X16542214Y-18674929D01*
X16556500Y-18660643D01*
X16570786Y-18632072D01*
X16570786Y-18560643D01*
X16556500Y-18532072D01*
X16542214Y-18517786D01*
X16513643Y-18503500D01*
X16456500Y-18503500D01*
X16427928Y-18517786D01*
X16413643Y-18532072D01*
X16399357Y-18560643D01*
X16927928Y-18689214D02*
X16927928Y-18389214D01*
X17056500Y-18689214D02*
X17056500Y-18532072D01*
X17042214Y-18503500D01*
X17013643Y-18489214D01*
X16970786Y-18489214D01*
X16942214Y-18503500D01*
X16927928Y-18517786D01*
X17242214Y-18689214D02*
X17213643Y-18674929D01*
X17199357Y-18660643D01*
X17185071Y-18632072D01*
X17185071Y-18546357D01*
X17199357Y-18517786D01*
X17213643Y-18503500D01*
X17242214Y-18489214D01*
X17285071Y-18489214D01*
X17313643Y-18503500D01*
X17327928Y-18517786D01*
X17342214Y-18546357D01*
X17342214Y-18632072D01*
X17327928Y-18660643D01*
X17313643Y-18674929D01*
X17285071Y-18689214D01*
X17242214Y-18689214D01*
X17513643Y-18689214D02*
X17485071Y-18674929D01*
X17470786Y-18646357D01*
X17470786Y-18389214D01*
X17742214Y-18674929D02*
X17713643Y-18689214D01*
X17656500Y-18689214D01*
X17627928Y-18674929D01*
X17613643Y-18646357D01*
X17613643Y-18532072D01*
X17627928Y-18503500D01*
X17656500Y-18489214D01*
X17713643Y-18489214D01*
X17742214Y-18503500D01*
X17756500Y-18532072D01*
X17756500Y-18560643D01*
X17613643Y-18589214D01*
X17870786Y-18674929D02*
X17899357Y-18689214D01*
X17956500Y-18689214D01*
X17985071Y-18674929D01*
X17999357Y-18646357D01*
X17999357Y-18632072D01*
X17985071Y-18603500D01*
X17956500Y-18589214D01*
X17913643Y-18589214D01*
X17885071Y-18574929D01*
X17870786Y-18546357D01*
X17870786Y-18532072D01*
X17885071Y-18503500D01*
X17913643Y-18489214D01*
X17956500Y-18489214D01*
X17985071Y-18503500D01*
X18099357Y-18803500D02*
X18113643Y-18789214D01*
X18142214Y-18746357D01*
X18156500Y-18717786D01*
X18170786Y-18674929D01*
X18185071Y-18603500D01*
X18185071Y-18546357D01*
X18170786Y-18474929D01*
X18156500Y-18432072D01*
X18142214Y-18403500D01*
X18113643Y-18360643D01*
X18099357Y-18346357D01*
X10921500Y-18889500D02*
X11041500Y-19009500D01*
X11041500Y-18889500D02*
X10921500Y-19009500D01*
X11041500Y-18949500D02*
G75*
G03*
X11041500Y-18949500I-60000J0D01*
G01*
X11485071Y-19085214D02*
X11313643Y-19085214D01*
X11399357Y-19085214D02*
X11399357Y-18785214D01*
X11370786Y-18828072D01*
X11342214Y-18856643D01*
X11313643Y-18870929D01*
X11613643Y-19056643D02*
X11627928Y-19070929D01*
X11613643Y-19085214D01*
X11599357Y-19070929D01*
X11613643Y-19056643D01*
X11613643Y-19085214D01*
X11742214Y-18813786D02*
X11756500Y-18799500D01*
X11785071Y-18785214D01*
X11856500Y-18785214D01*
X11885071Y-18799500D01*
X11899357Y-18813786D01*
X11913643Y-18842357D01*
X11913643Y-18870929D01*
X11899357Y-18913786D01*
X11727928Y-19085214D01*
X11913643Y-19085214D01*
X12099357Y-18785214D02*
X12127928Y-18785214D01*
X12156500Y-18799500D01*
X12170786Y-18813786D01*
X12185071Y-18842357D01*
X12199357Y-18899500D01*
X12199357Y-18970929D01*
X12185071Y-19028072D01*
X12170786Y-19056643D01*
X12156500Y-19070929D01*
X12127928Y-19085214D01*
X12099357Y-19085214D01*
X12070786Y-19070929D01*
X12056500Y-19056643D01*
X12042214Y-19028072D01*
X12027928Y-18970929D01*
X12027928Y-18899500D01*
X12042214Y-18842357D01*
X12056500Y-18813786D01*
X12070786Y-18799500D01*
X12099357Y-18785214D01*
X12385071Y-18785214D02*
X12413643Y-18785214D01*
X12442214Y-18799500D01*
X12456500Y-18813786D01*
X12470786Y-18842357D01*
X12485071Y-18899500D01*
X12485071Y-18970929D01*
X12470786Y-19028072D01*
X12456500Y-19056643D01*
X12442214Y-19070929D01*
X12413643Y-19085214D01*
X12385071Y-19085214D01*
X12356500Y-19070929D01*
X12342214Y-19056643D01*
X12327928Y-19028072D01*
X12313643Y-18970929D01*
X12313643Y-18899500D01*
X12327928Y-18842357D01*
X12342214Y-18813786D01*
X12356500Y-18799500D01*
X12385071Y-18785214D01*
X12613643Y-19085214D02*
X12613643Y-18885214D01*
X12613643Y-18913786D02*
X12627928Y-18899500D01*
X12656500Y-18885214D01*
X12699357Y-18885214D01*
X12727928Y-18899500D01*
X12742214Y-18928072D01*
X12742214Y-19085214D01*
X12742214Y-18928072D02*
X12756500Y-18899500D01*
X12785071Y-18885214D01*
X12827928Y-18885214D01*
X12856500Y-18899500D01*
X12870786Y-18928072D01*
X12870786Y-19085214D01*
X13013643Y-19085214D02*
X13013643Y-18885214D01*
X13013643Y-18913786D02*
X13027928Y-18899500D01*
X13056500Y-18885214D01*
X13099357Y-18885214D01*
X13127928Y-18899500D01*
X13142214Y-18928072D01*
X13142214Y-19085214D01*
X13142214Y-18928072D02*
X13156500Y-18899500D01*
X13185071Y-18885214D01*
X13227928Y-18885214D01*
X13256500Y-18899500D01*
X13270786Y-18928072D01*
X13270786Y-19085214D01*
X13856500Y-18770929D02*
X13599357Y-19156643D01*
X14242214Y-18785214D02*
X14270786Y-18785214D01*
X14299357Y-18799500D01*
X14313643Y-18813786D01*
X14327928Y-18842357D01*
X14342214Y-18899500D01*
X14342214Y-18970929D01*
X14327928Y-19028072D01*
X14313643Y-19056643D01*
X14299357Y-19070929D01*
X14270786Y-19085214D01*
X14242214Y-19085214D01*
X14213643Y-19070929D01*
X14199357Y-19056643D01*
X14185071Y-19028072D01*
X14170786Y-18970929D01*
X14170786Y-18899500D01*
X14185071Y-18842357D01*
X14199357Y-18813786D01*
X14213643Y-18799500D01*
X14242214Y-18785214D01*
X14470786Y-19056643D02*
X14485071Y-19070929D01*
X14470786Y-19085214D01*
X14456500Y-19070929D01*
X14470786Y-19056643D01*
X14470786Y-19085214D01*
X14670786Y-18785214D02*
X14699357Y-18785214D01*
X14727928Y-18799500D01*
X14742214Y-18813786D01*
X14756500Y-18842357D01*
X14770786Y-18899500D01*
X14770786Y-18970929D01*
X14756500Y-19028072D01*
X14742214Y-19056643D01*
X14727928Y-19070929D01*
X14699357Y-19085214D01*
X14670786Y-19085214D01*
X14642214Y-19070929D01*
X14627928Y-19056643D01*
X14613643Y-19028072D01*
X14599357Y-18970929D01*
X14599357Y-18899500D01*
X14613643Y-18842357D01*
X14627928Y-18813786D01*
X14642214Y-18799500D01*
X14670786Y-18785214D01*
X15027928Y-18885214D02*
X15027928Y-19085214D01*
X14956500Y-18770929D02*
X14885071Y-18985214D01*
X15070786Y-18985214D01*
X15156500Y-18785214D02*
X15356500Y-18785214D01*
X15227928Y-19085214D01*
X15456500Y-18813786D02*
X15470786Y-18799500D01*
X15499357Y-18785214D01*
X15570786Y-18785214D01*
X15599357Y-18799500D01*
X15613643Y-18813786D01*
X15627928Y-18842357D01*
X15627928Y-18870929D01*
X15613643Y-18913786D01*
X15442214Y-19085214D01*
X15627928Y-19085214D01*
X15742214Y-18785214D02*
X15742214Y-18842357D01*
X15856500Y-18785214D02*
X15856500Y-18842357D01*
X16299357Y-19199500D02*
X16285071Y-19185214D01*
X16256500Y-19142357D01*
X16242214Y-19113786D01*
X16227928Y-19070929D01*
X16213643Y-18999500D01*
X16213643Y-18942357D01*
X16227928Y-18870929D01*
X16242214Y-18828072D01*
X16256500Y-18799500D01*
X16285071Y-18756643D01*
X16299357Y-18742357D01*
X16570786Y-19085214D02*
X16399357Y-19085214D01*
X16485071Y-19085214D02*
X16485071Y-18785214D01*
X16456500Y-18828072D01*
X16427928Y-18856643D01*
X16399357Y-18870929D01*
X16827928Y-18785214D02*
X16770786Y-18785214D01*
X16742214Y-18799500D01*
X16727928Y-18813786D01*
X16699357Y-18856643D01*
X16685071Y-18913786D01*
X16685071Y-19028072D01*
X16699357Y-19056643D01*
X16713643Y-19070929D01*
X16742214Y-19085214D01*
X16799357Y-19085214D01*
X16827928Y-19070929D01*
X16842214Y-19056643D01*
X16856500Y-19028072D01*
X16856500Y-18956643D01*
X16842214Y-18928072D01*
X16827928Y-18913786D01*
X16799357Y-18899500D01*
X16742214Y-18899500D01*
X16713643Y-18913786D01*
X16699357Y-18928072D01*
X16685071Y-18956643D01*
X17213643Y-19085214D02*
X17213643Y-18785214D01*
X17342214Y-19085214D02*
X17342214Y-18928072D01*
X17327928Y-18899500D01*
X17299357Y-18885214D01*
X17256500Y-18885214D01*
X17227928Y-18899500D01*
X17213643Y-18913786D01*
X17527928Y-19085214D02*
X17499357Y-19070929D01*
X17485071Y-19056643D01*
X17470786Y-19028072D01*
X17470786Y-18942357D01*
X17485071Y-18913786D01*
X17499357Y-18899500D01*
X17527928Y-18885214D01*
X17570786Y-18885214D01*
X17599357Y-18899500D01*
X17613643Y-18913786D01*
X17627928Y-18942357D01*
X17627928Y-19028072D01*
X17613643Y-19056643D01*
X17599357Y-19070929D01*
X17570786Y-19085214D01*
X17527928Y-19085214D01*
X17799357Y-19085214D02*
X17770786Y-19070929D01*
X17756500Y-19042357D01*
X17756500Y-18785214D01*
X18027928Y-19070929D02*
X17999357Y-19085214D01*
X17942214Y-19085214D01*
X17913643Y-19070929D01*
X17899357Y-19042357D01*
X17899357Y-18928072D01*
X17913643Y-18899500D01*
X17942214Y-18885214D01*
X17999357Y-18885214D01*
X18027928Y-18899500D01*
X18042214Y-18928072D01*
X18042214Y-18956643D01*
X17899357Y-18985214D01*
X18156500Y-19070929D02*
X18185071Y-19085214D01*
X18242214Y-19085214D01*
X18270786Y-19070929D01*
X18285071Y-19042357D01*
X18285071Y-19028072D01*
X18270786Y-18999500D01*
X18242214Y-18985214D01*
X18199357Y-18985214D01*
X18170786Y-18970929D01*
X18156500Y-18942357D01*
X18156500Y-18928072D01*
X18170786Y-18899500D01*
X18199357Y-18885214D01*
X18242214Y-18885214D01*
X18270786Y-18899500D01*
X18385071Y-19199500D02*
X18399357Y-19185214D01*
X18427928Y-19142357D01*
X18442214Y-19113786D01*
X18456500Y-19070929D01*
X18470786Y-18999500D01*
X18470786Y-18942357D01*
X18456500Y-18870929D01*
X18442214Y-18828072D01*
X18427928Y-18799500D01*
X18399357Y-18756643D01*
X18385071Y-18742357D01*
X10889500Y-19269500D02*
X11041500Y-19421500D01*
X11041500Y-19269500D02*
X10889500Y-19421500D01*
X10965500Y-19269500D02*
X10965500Y-19421500D01*
X10889500Y-19345500D02*
X11041500Y-19345500D01*
X11485071Y-19481214D02*
X11313643Y-19481214D01*
X11399357Y-19481214D02*
X11399357Y-19181214D01*
X11370786Y-19224072D01*
X11342214Y-19252643D01*
X11313643Y-19266929D01*
X11613643Y-19452643D02*
X11627928Y-19466929D01*
X11613643Y-19481214D01*
X11599357Y-19466929D01*
X11613643Y-19452643D01*
X11613643Y-19481214D01*
X11899357Y-19181214D02*
X11756500Y-19181214D01*
X11742214Y-19324072D01*
X11756500Y-19309786D01*
X11785071Y-19295500D01*
X11856500Y-19295500D01*
X11885071Y-19309786D01*
X11899357Y-19324072D01*
X11913643Y-19352643D01*
X11913643Y-19424072D01*
X11899357Y-19452643D01*
X11885071Y-19466929D01*
X11856500Y-19481214D01*
X11785071Y-19481214D01*
X11756500Y-19466929D01*
X11742214Y-19452643D01*
X12027928Y-19209786D02*
X12042214Y-19195500D01*
X12070786Y-19181214D01*
X12142214Y-19181214D01*
X12170786Y-19195500D01*
X12185071Y-19209786D01*
X12199357Y-19238357D01*
X12199357Y-19266929D01*
X12185071Y-19309786D01*
X12013643Y-19481214D01*
X12199357Y-19481214D01*
X12385071Y-19181214D02*
X12413643Y-19181214D01*
X12442214Y-19195500D01*
X12456500Y-19209786D01*
X12470786Y-19238357D01*
X12485071Y-19295500D01*
X12485071Y-19366929D01*
X12470786Y-19424072D01*
X12456500Y-19452643D01*
X12442214Y-19466929D01*
X12413643Y-19481214D01*
X12385071Y-19481214D01*
X12356500Y-19466929D01*
X12342214Y-19452643D01*
X12327928Y-19424072D01*
X12313643Y-19366929D01*
X12313643Y-19295500D01*
X12327928Y-19238357D01*
X12342214Y-19209786D01*
X12356500Y-19195500D01*
X12385071Y-19181214D01*
X12613643Y-19481214D02*
X12613643Y-19281214D01*
X12613643Y-19309786D02*
X12627928Y-19295500D01*
X12656500Y-19281214D01*
X12699357Y-19281214D01*
X12727928Y-19295500D01*
X12742214Y-19324072D01*
X12742214Y-19481214D01*
X12742214Y-19324072D02*
X12756500Y-19295500D01*
X12785071Y-19281214D01*
X12827928Y-19281214D01*
X12856500Y-19295500D01*
X12870786Y-19324072D01*
X12870786Y-19481214D01*
X13013643Y-19481214D02*
X13013643Y-19281214D01*
X13013643Y-19309786D02*
X13027928Y-19295500D01*
X13056500Y-19281214D01*
X13099357Y-19281214D01*
X13127928Y-19295500D01*
X13142214Y-19324072D01*
X13142214Y-19481214D01*
X13142214Y-19324072D02*
X13156500Y-19295500D01*
X13185071Y-19281214D01*
X13227928Y-19281214D01*
X13256500Y-19295500D01*
X13270786Y-19324072D01*
X13270786Y-19481214D01*
X13856500Y-19166929D02*
X13599357Y-19552643D01*
X14242214Y-19181214D02*
X14270786Y-19181214D01*
X14299357Y-19195500D01*
X14313643Y-19209786D01*
X14327928Y-19238357D01*
X14342214Y-19295500D01*
X14342214Y-19366929D01*
X14327928Y-19424072D01*
X14313643Y-19452643D01*
X14299357Y-19466929D01*
X14270786Y-19481214D01*
X14242214Y-19481214D01*
X14213643Y-19466929D01*
X14199357Y-19452643D01*
X14185071Y-19424072D01*
X14170786Y-19366929D01*
X14170786Y-19295500D01*
X14185071Y-19238357D01*
X14199357Y-19209786D01*
X14213643Y-19195500D01*
X14242214Y-19181214D01*
X14470786Y-19452643D02*
X14485071Y-19466929D01*
X14470786Y-19481214D01*
X14456500Y-19466929D01*
X14470786Y-19452643D01*
X14470786Y-19481214D01*
X14670786Y-19181214D02*
X14699357Y-19181214D01*
X14727928Y-19195500D01*
X14742214Y-19209786D01*
X14756500Y-19238357D01*
X14770786Y-19295500D01*
X14770786Y-19366929D01*
X14756500Y-19424072D01*
X14742214Y-19452643D01*
X14727928Y-19466929D01*
X14699357Y-19481214D01*
X14670786Y-19481214D01*
X14642214Y-19466929D01*
X14627928Y-19452643D01*
X14613643Y-19424072D01*
X14599357Y-19366929D01*
X14599357Y-19295500D01*
X14613643Y-19238357D01*
X14627928Y-19209786D01*
X14642214Y-19195500D01*
X14670786Y-19181214D01*
X15042214Y-19181214D02*
X14899357Y-19181214D01*
X14885071Y-19324072D01*
X14899357Y-19309786D01*
X14927928Y-19295500D01*
X14999357Y-19295500D01*
X15027928Y-19309786D01*
X15042214Y-19324072D01*
X15056500Y-19352643D01*
X15056500Y-19424072D01*
X15042214Y-19452643D01*
X15027928Y-19466929D01*
X14999357Y-19481214D01*
X14927928Y-19481214D01*
X14899357Y-19466929D01*
X14885071Y-19452643D01*
X15199357Y-19481214D02*
X15256500Y-19481214D01*
X15285071Y-19466929D01*
X15299357Y-19452643D01*
X15327928Y-19409786D01*
X15342214Y-19352643D01*
X15342214Y-19238357D01*
X15327928Y-19209786D01*
X15313643Y-19195500D01*
X15285071Y-19181214D01*
X15227928Y-19181214D01*
X15199357Y-19195500D01*
X15185071Y-19209786D01*
X15170786Y-19238357D01*
X15170786Y-19309786D01*
X15185071Y-19338357D01*
X15199357Y-19352643D01*
X15227928Y-19366929D01*
X15285071Y-19366929D01*
X15313643Y-19352643D01*
X15327928Y-19338357D01*
X15342214Y-19309786D01*
X15513643Y-19309786D02*
X15485071Y-19295500D01*
X15470786Y-19281214D01*
X15456500Y-19252643D01*
X15456500Y-19238357D01*
X15470786Y-19209786D01*
X15485071Y-19195500D01*
X15513643Y-19181214D01*
X15570786Y-19181214D01*
X15599357Y-19195500D01*
X15613643Y-19209786D01*
X15627928Y-19238357D01*
X15627928Y-19252643D01*
X15613643Y-19281214D01*
X15599357Y-19295500D01*
X15570786Y-19309786D01*
X15513643Y-19309786D01*
X15485071Y-19324072D01*
X15470786Y-19338357D01*
X15456500Y-19366929D01*
X15456500Y-19424072D01*
X15470786Y-19452643D01*
X15485071Y-19466929D01*
X15513643Y-19481214D01*
X15570786Y-19481214D01*
X15599357Y-19466929D01*
X15613643Y-19452643D01*
X15627928Y-19424072D01*
X15627928Y-19366929D01*
X15613643Y-19338357D01*
X15599357Y-19324072D01*
X15570786Y-19309786D01*
X15742214Y-19181214D02*
X15742214Y-19238357D01*
X15856500Y-19181214D02*
X15856500Y-19238357D01*
X16299357Y-19595500D02*
X16285071Y-19581214D01*
X16256500Y-19538357D01*
X16242214Y-19509786D01*
X16227928Y-19466929D01*
X16213643Y-19395500D01*
X16213643Y-19338357D01*
X16227928Y-19266929D01*
X16242214Y-19224072D01*
X16256500Y-19195500D01*
X16285071Y-19152643D01*
X16299357Y-19138357D01*
X16385071Y-19181214D02*
X16570786Y-19181214D01*
X16470786Y-19295500D01*
X16513643Y-19295500D01*
X16542214Y-19309786D01*
X16556500Y-19324072D01*
X16570786Y-19352643D01*
X16570786Y-19424072D01*
X16556500Y-19452643D01*
X16542214Y-19466929D01*
X16513643Y-19481214D01*
X16427928Y-19481214D01*
X16399357Y-19466929D01*
X16385071Y-19452643D01*
X16927928Y-19481214D02*
X16927928Y-19181214D01*
X17056500Y-19481214D02*
X17056500Y-19324072D01*
X17042214Y-19295500D01*
X17013643Y-19281214D01*
X16970786Y-19281214D01*
X16942214Y-19295500D01*
X16927928Y-19309786D01*
X17242214Y-19481214D02*
X17213643Y-19466929D01*
X17199357Y-19452643D01*
X17185071Y-19424072D01*
X17185071Y-19338357D01*
X17199357Y-19309786D01*
X17213643Y-19295500D01*
X17242214Y-19281214D01*
X17285071Y-19281214D01*
X17313643Y-19295500D01*
X17327928Y-19309786D01*
X17342214Y-19338357D01*
X17342214Y-19424072D01*
X17327928Y-19452643D01*
X17313643Y-19466929D01*
X17285071Y-19481214D01*
X17242214Y-19481214D01*
X17513643Y-19481214D02*
X17485071Y-19466929D01*
X17470786Y-19438357D01*
X17470786Y-19181214D01*
X17742214Y-19466929D02*
X17713643Y-19481214D01*
X17656500Y-19481214D01*
X17627928Y-19466929D01*
X17613643Y-19438357D01*
X17613643Y-19324072D01*
X17627928Y-19295500D01*
X17656500Y-19281214D01*
X17713643Y-19281214D01*
X17742214Y-19295500D01*
X17756500Y-19324072D01*
X17756500Y-19352643D01*
X17613643Y-19381214D01*
X17870786Y-19466929D02*
X17899357Y-19481214D01*
X17956500Y-19481214D01*
X17985071Y-19466929D01*
X17999357Y-19438357D01*
X17999357Y-19424072D01*
X17985071Y-19395500D01*
X17956500Y-19381214D01*
X17913643Y-19381214D01*
X17885071Y-19366929D01*
X17870786Y-19338357D01*
X17870786Y-19324072D01*
X17885071Y-19295500D01*
X17913643Y-19281214D01*
X17956500Y-19281214D01*
X17985071Y-19295500D01*
X18099357Y-19595500D02*
X18113643Y-19581214D01*
X18142214Y-19538357D01*
X18156500Y-19509786D01*
X18170786Y-19466929D01*
X18185071Y-19395500D01*
X18185071Y-19338357D01*
X18170786Y-19266929D01*
X18156500Y-19224072D01*
X18142214Y-19195500D01*
X18113643Y-19152643D01*
X18099357Y-19138357D01*
X10841500Y-19641500D02*
X11041500Y-19841500D01*
X11041500Y-19641500D02*
X10841500Y-19841500D01*
X11012211Y-19812212D02*
X11012211Y-19670789D01*
X10870789Y-19670789D01*
X10870789Y-19812212D01*
X11012211Y-19812212D01*
X11313643Y-19605786D02*
X11327928Y-19591500D01*
X11356500Y-19577214D01*
X11427928Y-19577214D01*
X11456500Y-19591500D01*
X11470786Y-19605786D01*
X11485071Y-19634357D01*
X11485071Y-19662929D01*
X11470786Y-19705786D01*
X11299357Y-19877214D01*
X11485071Y-19877214D01*
X11613643Y-19848643D02*
X11627928Y-19862929D01*
X11613643Y-19877214D01*
X11599357Y-19862929D01*
X11613643Y-19848643D01*
X11613643Y-19877214D01*
X11813643Y-19577214D02*
X11842214Y-19577214D01*
X11870786Y-19591500D01*
X11885071Y-19605786D01*
X11899357Y-19634357D01*
X11913643Y-19691500D01*
X11913643Y-19762929D01*
X11899357Y-19820072D01*
X11885071Y-19848643D01*
X11870786Y-19862929D01*
X11842214Y-19877214D01*
X11813643Y-19877214D01*
X11785071Y-19862929D01*
X11770786Y-19848643D01*
X11756500Y-19820072D01*
X11742214Y-19762929D01*
X11742214Y-19691500D01*
X11756500Y-19634357D01*
X11770786Y-19605786D01*
X11785071Y-19591500D01*
X11813643Y-19577214D01*
X12099357Y-19577214D02*
X12127928Y-19577214D01*
X12156500Y-19591500D01*
X12170786Y-19605786D01*
X12185071Y-19634357D01*
X12199357Y-19691500D01*
X12199357Y-19762929D01*
X12185071Y-19820072D01*
X12170786Y-19848643D01*
X12156500Y-19862929D01*
X12127928Y-19877214D01*
X12099357Y-19877214D01*
X12070786Y-19862929D01*
X12056500Y-19848643D01*
X12042214Y-19820072D01*
X12027928Y-19762929D01*
X12027928Y-19691500D01*
X12042214Y-19634357D01*
X12056500Y-19605786D01*
X12070786Y-19591500D01*
X12099357Y-19577214D01*
X12385071Y-19577214D02*
X12413643Y-19577214D01*
X12442214Y-19591500D01*
X12456500Y-19605786D01*
X12470786Y-19634357D01*
X12485071Y-19691500D01*
X12485071Y-19762929D01*
X12470786Y-19820072D01*
X12456500Y-19848643D01*
X12442214Y-19862929D01*
X12413643Y-19877214D01*
X12385071Y-19877214D01*
X12356500Y-19862929D01*
X12342214Y-19848643D01*
X12327928Y-19820072D01*
X12313643Y-19762929D01*
X12313643Y-19691500D01*
X12327928Y-19634357D01*
X12342214Y-19605786D01*
X12356500Y-19591500D01*
X12385071Y-19577214D01*
X12613643Y-19877214D02*
X12613643Y-19677214D01*
X12613643Y-19705786D02*
X12627928Y-19691500D01*
X12656500Y-19677214D01*
X12699357Y-19677214D01*
X12727928Y-19691500D01*
X12742214Y-19720072D01*
X12742214Y-19877214D01*
X12742214Y-19720072D02*
X12756500Y-19691500D01*
X12785071Y-19677214D01*
X12827928Y-19677214D01*
X12856500Y-19691500D01*
X12870786Y-19720072D01*
X12870786Y-19877214D01*
X13013643Y-19877214D02*
X13013643Y-19677214D01*
X13013643Y-19705786D02*
X13027928Y-19691500D01*
X13056500Y-19677214D01*
X13099357Y-19677214D01*
X13127928Y-19691500D01*
X13142214Y-19720072D01*
X13142214Y-19877214D01*
X13142214Y-19720072D02*
X13156500Y-19691500D01*
X13185071Y-19677214D01*
X13227928Y-19677214D01*
X13256500Y-19691500D01*
X13270786Y-19720072D01*
X13270786Y-19877214D01*
X13856500Y-19562929D02*
X13599357Y-19948643D01*
X14242214Y-19577214D02*
X14270786Y-19577214D01*
X14299357Y-19591500D01*
X14313643Y-19605786D01*
X14327928Y-19634357D01*
X14342214Y-19691500D01*
X14342214Y-19762929D01*
X14327928Y-19820072D01*
X14313643Y-19848643D01*
X14299357Y-19862929D01*
X14270786Y-19877214D01*
X14242214Y-19877214D01*
X14213643Y-19862929D01*
X14199357Y-19848643D01*
X14185071Y-19820072D01*
X14170786Y-19762929D01*
X14170786Y-19691500D01*
X14185071Y-19634357D01*
X14199357Y-19605786D01*
X14213643Y-19591500D01*
X14242214Y-19577214D01*
X14470786Y-19848643D02*
X14485071Y-19862929D01*
X14470786Y-19877214D01*
X14456500Y-19862929D01*
X14470786Y-19848643D01*
X14470786Y-19877214D01*
X14670786Y-19577214D02*
X14699357Y-19577214D01*
X14727928Y-19591500D01*
X14742214Y-19605786D01*
X14756500Y-19634357D01*
X14770786Y-19691500D01*
X14770786Y-19762929D01*
X14756500Y-19820072D01*
X14742214Y-19848643D01*
X14727928Y-19862929D01*
X14699357Y-19877214D01*
X14670786Y-19877214D01*
X14642214Y-19862929D01*
X14627928Y-19848643D01*
X14613643Y-19820072D01*
X14599357Y-19762929D01*
X14599357Y-19691500D01*
X14613643Y-19634357D01*
X14627928Y-19605786D01*
X14642214Y-19591500D01*
X14670786Y-19577214D01*
X14870786Y-19577214D02*
X15070786Y-19577214D01*
X14942214Y-19877214D01*
X15227928Y-19705786D02*
X15199357Y-19691500D01*
X15185071Y-19677214D01*
X15170786Y-19648643D01*
X15170786Y-19634357D01*
X15185071Y-19605786D01*
X15199357Y-19591500D01*
X15227928Y-19577214D01*
X15285071Y-19577214D01*
X15313643Y-19591500D01*
X15327928Y-19605786D01*
X15342214Y-19634357D01*
X15342214Y-19648643D01*
X15327928Y-19677214D01*
X15313643Y-19691500D01*
X15285071Y-19705786D01*
X15227928Y-19705786D01*
X15199357Y-19720072D01*
X15185071Y-19734357D01*
X15170786Y-19762929D01*
X15170786Y-19820072D01*
X15185071Y-19848643D01*
X15199357Y-19862929D01*
X15227928Y-19877214D01*
X15285071Y-19877214D01*
X15313643Y-19862929D01*
X15327928Y-19848643D01*
X15342214Y-19820072D01*
X15342214Y-19762929D01*
X15327928Y-19734357D01*
X15313643Y-19720072D01*
X15285071Y-19705786D01*
X15442214Y-19577214D02*
X15642214Y-19577214D01*
X15513643Y-19877214D01*
X15742214Y-19577214D02*
X15742214Y-19634357D01*
X15856500Y-19577214D02*
X15856500Y-19634357D01*
X16299357Y-19991500D02*
X16285071Y-19977214D01*
X16256500Y-19934357D01*
X16242214Y-19905786D01*
X16227928Y-19862929D01*
X16213643Y-19791500D01*
X16213643Y-19734357D01*
X16227928Y-19662929D01*
X16242214Y-19620072D01*
X16256500Y-19591500D01*
X16285071Y-19548643D01*
X16299357Y-19534357D01*
X16385071Y-19577214D02*
X16570786Y-19577214D01*
X16470786Y-19691500D01*
X16513643Y-19691500D01*
X16542214Y-19705786D01*
X16556500Y-19720072D01*
X16570786Y-19748643D01*
X16570786Y-19820072D01*
X16556500Y-19848643D01*
X16542214Y-19862929D01*
X16513643Y-19877214D01*
X16427928Y-19877214D01*
X16399357Y-19862929D01*
X16385071Y-19848643D01*
X16927928Y-19877214D02*
X16927928Y-19577214D01*
X17056500Y-19877214D02*
X17056500Y-19720072D01*
X17042214Y-19691500D01*
X17013643Y-19677214D01*
X16970786Y-19677214D01*
X16942214Y-19691500D01*
X16927928Y-19705786D01*
X17242214Y-19877214D02*
X17213643Y-19862929D01*
X17199357Y-19848643D01*
X17185071Y-19820072D01*
X17185071Y-19734357D01*
X17199357Y-19705786D01*
X17213643Y-19691500D01*
X17242214Y-19677214D01*
X17285071Y-19677214D01*
X17313643Y-19691500D01*
X17327928Y-19705786D01*
X17342214Y-19734357D01*
X17342214Y-19820072D01*
X17327928Y-19848643D01*
X17313643Y-19862929D01*
X17285071Y-19877214D01*
X17242214Y-19877214D01*
X17513643Y-19877214D02*
X17485071Y-19862929D01*
X17470786Y-19834357D01*
X17470786Y-19577214D01*
X17742214Y-19862929D02*
X17713643Y-19877214D01*
X17656500Y-19877214D01*
X17627928Y-19862929D01*
X17613643Y-19834357D01*
X17613643Y-19720072D01*
X17627928Y-19691500D01*
X17656500Y-19677214D01*
X17713643Y-19677214D01*
X17742214Y-19691500D01*
X17756500Y-19720072D01*
X17756500Y-19748643D01*
X17613643Y-19777214D01*
X17870786Y-19862929D02*
X17899357Y-19877214D01*
X17956500Y-19877214D01*
X17985071Y-19862929D01*
X17999357Y-19834357D01*
X17999357Y-19820072D01*
X17985071Y-19791500D01*
X17956500Y-19777214D01*
X17913643Y-19777214D01*
X17885071Y-19762929D01*
X17870786Y-19734357D01*
X17870786Y-19720072D01*
X17885071Y-19691500D01*
X17913643Y-19677214D01*
X17956500Y-19677214D01*
X17985071Y-19691500D01*
X18099357Y-19991500D02*
X18113643Y-19977214D01*
X18142214Y-19934357D01*
X18156500Y-19905786D01*
X18170786Y-19862929D01*
X18185071Y-19791500D01*
X18185071Y-19734357D01*
X18170786Y-19662929D01*
X18156500Y-19620072D01*
X18142214Y-19591500D01*
X18113643Y-19548643D01*
X18099357Y-19534357D01*
M02*
